<svg id="Capa_1" data-name="Capa 1" xmlns="http://www.w3.org/2000/svg" viewBox="0 0 738.41 738.84"><defs><style>.cls-1{fill:#fff;stroke:#000;stroke-miterlimit:10;}.cls-2{fill:#4a5899;}</style></defs><title>computer</title><circle class="cls-1" cx="372.39" cy="372" r="344.8"/><path class="cls-2" d="M348.71.94c-76.5,4-149.2,31.8-210.8,80.6-14.2,11.2-45.6,42.6-56.8,56.8-49.6,62.6-76.6,134-80.6,213.3-4.7,90.2,23.5,177.6,80,248.9,13.1,16.4,41.8,45.1,58.2,58.2a368.17,368.17,0,0,0,192.1,78.6c19.2,2,58,2,77.2,0,84.1-8.9,159.6-44.5,220.2-103.9,61.9-60.6,99.6-138.8,108.7-225,2-19.2,2-58,0-77.2a368.17,368.17,0,0,0-78.6-192.1c-13.1-16.4-41.8-45.1-58.2-58.2a369.06,369.06,0,0,0-182.7-77.6C407.11,2,371-.36,365.91,0,364.81,0,357,.54,348.71.94Zm58.6,38.5c11.2,4.7,17.9,17.8,10.9,21.5-3.1,1.7-5.5.1-8.8-5.7-3.6-6.4-8-8.9-14.1-8.1-8.1,1.1-12.8,7.9-13.7,19.6-.9,12.5,4.3,19.5,14.4,19.5,4.6,0,5.8-.4,8.4-2.9a29.47,29.47,0,0,0,4.7-6.3c1.3-2.7,2.1-3.2,4.9-3.2,10.1,0,4.4,15.6-7.6,20.8-5.2,2.3-15.6,1.9-21.9-.8-12.3-5.4-18.2-21.1-13.6-36.7C375.71,40.94,391.91,33,407.31,39.44Zm69.8,14.9c7.3,3.3,10.9,6.7,13.9,13s3.1,13.5.4,21.6c-5.1,15.1-12.7,21.3-26,21.4-8.7,0-16.2-2.9-21.8-8.6s-6.7-8.4-6.7-18.4c0-7.6.4-9.9,2.6-14.5C447.21,52.34,461.11,46.94,477.11,54.34Zm-156.6,7.1c1.5.7,3.3,3,4.2,5.3,5.4,13.4-12.8,22.1-20.3,9.8-2.6-4.2-2.5-7.6.3-11.8C308.41,59.24,313.91,58,320.51,61.44Zm-70.6,5.3c3.8,2.2,7.5,8.6,7.5,13.2,0,2.2-1.1,5.2-2.9,8.2l-3,4.6,5.5,2.5c7.3,3.4,13.9,8.2,15.3,11.2.9,2.1.8,2.8-1.4,4.9-1.3,1.4-3.2,2.5-4.2,2.5s-6.1-2.8-11.3-6.1-10.7-6.5-12.1-6.9c-2.3-.7-9.1.8-10.6,2.3-.2.3,1.4,4.5,3.6,9.3s4.1,9.6,4.1,10.7c0,5-6.5,7.5-9.7,3.8-2.5-3-21.3-43.1-21.3-45.6,0-3.1,2.1-4.6,13.5-10C239.71,63.44,243,62.84,249.91,66.74Zm284.4,13.7c2.2,1.4,4.2,3.2,4.5,4,.4,1.2-2.4,10.9-9.9,34.4-.5,1.6,3.2-1.2,11.9-9.3,7-6.4,13.5-12.1,14.5-12.6,2.2-1.2,8.6,1.7,12.2,5.5,2,2.1,2.2,2.9,1.3,5.2-1.1,2.9-23.5,38.3-26.2,41.4-1.7,2.1-6.2,2.4-8,.6-2.5-2.5-1-6.5,8.3-20.9,5.2-8.1,9.5-15.1,9.5-15.4s-5.9,4.9-13.1,11.7-14.2,12.9-15.5,13.6c-4.5,2.4-9.4-.8-9.4-6.2,0-1.7,2.5-10.5,5.5-19.6s5.3-16.5,5.2-16.7-4.5,6.3-9.6,14.3-10.4,15.2-11.7,16.1c-2.2,1.4-2.6,1.4-4.9-.1a5,5,0,0,1-2.5-4.2c0-2.2,22.3-38.5,26.8-43.7C525.31,76.24,528.91,76.84,534.31,80.44Zm-347.8,14.4a4.29,4.29,0,0,1,1.9,3.9c0,2.7-2,4.6-21.9,19.7-.4.3,7,10.4,7.6,10.4.2,0,4.3-3.1,9.1-6.9,10.1-7.9,12.5-9.3,14.6-8.5,1.9.7,2.9,3.8,2.1,6.1-.3,1-5,5.2-10.4,9.3l-9.8,7.5,4.4,5.7c2.4,3.2,4.8,5.8,5.2,5.8s5.7-3.8,11.7-8.5,11.7-8.5,12.6-8.5c3.5,0,6,4.7,4,7.6-.4.6-6.9,5.9-14.6,11.8-10.1,7.8-14.6,10.6-16.7,10.6-2.5,0-4.4-2-16.2-17.3-7.3-9.4-14.1-18.3-15-19.7-3.4-4.9-2.5-6.4,9.4-15.8,10.5-8.2,18.7-14.2,19.6-14.2A17.85,17.85,0,0,1,186.51,94.84Zm409.8,32.4c4.2,2.3,19,19.6,20.2,23.5,1.5,5-.2,10.8-4.3,15-9.2,9.4-18.2,8.4-29.7-3.3l-5.4-5.5-7,6.5c-7.4,6.8-10.4,7.9-13.9,4.7-4.1-3.7-2.7-5.8,15.3-23.2,15.2-14.7,20.2-19,21.9-19A13.53,13.53,0,0,1,596.31,127.24Zm-208.7,3.3c2.2,2,2.3,4.1.1,6.5-1.4,1.6-3.4,1.8-18,1.8-15,0-16.5-.2-18.3-2-2.4-2.4-2.5-3.8-.3-6.2,1.4-1.6,3.4-1.8,18.1-1.8C383.21,128.84,386,129.14,387.61,130.54Zm-58.8,3.9c3.8,3.7.3,7.7-7.9,9.3-3.3.6-9.9,2.3-14.7,3.7-11.7,3.6-16.8,2.1-14.1-3.9,1.1-2.4,11.7-6.4,24.3-9.1C325.11,132.54,327,132.54,328.81,134.44Zm104,3c6.6,1.9,12.6,4,13.3,4.6,1.6,1.3,1.7,5,.1,6.6s-4,1.5-13.2-1.2c-4.4-1.4-11-3-14.6-3.7-7.7-1.4-9-2.3-9-5.8C409.41,131.74,412.81,131.74,432.81,137.44Zm-295.2.1c2.9,2.6,2.2,5.2-3.1,11.2l-4.8,5.6,14.4,12.4c7.9,6.8,15.5,13.5,16.8,14.9,2.9,2.8,3.2,6.3.9,8.6-3.6,3.6-6.3,2.2-23.3-12.6l-16.4-14.2-5.1,5.7c-5.9,6.6-9.8,7.6-11.8,3.2-1.4-3.1-1.2-3.3,13.2-20C133.61,134.64,134,134.34,137.61,137.54Zm135.6,17.6c.5,3.9-1,5.3-9.3,9.1a126.83,126.83,0,0,0-12.8,6.9c-7.8,5-12.7,4.7-12.7-.8,0-3.2,3.4-5.9,16.1-12.5,8.6-4.5,12.3-5.9,14.9-5.8C272.41,152.34,272.91,152.74,273.21,155.14Zm207.5.8c18.6,9.3,22.7,13,19,17.1-2.2,2.4-5.8,2.3-9.6-.5-1.8-1.2-7.9-4.7-13.7-7.7-8.2-4.3-10.6-6-10.8-7.8C464.71,150.54,469.21,150.24,480.71,155.94ZM643.51,180a8.26,8.26,0,0,1,.7,4.5c-.3,2.3-2.7,4.1-15.2,11.8-8.2,5.1-16,10.4-17.3,11.9-3.8,4.5-2.9,10,2.5,15.8,2,2.2,3.5,2.8,6.7,2.8,3.4,0,6.5-1.4,17.6-8.2,20.4-12.4,19.6-12.1,22.9-8.8a5.76,5.76,0,0,1-.2,8.7c-3,2.6-26.6,16.9-31.1,18.8a19.75,19.75,0,0,1-23.8-6.8c-9.9-13.6-10.4-24.7-1.4-32.5,3.5-3.1,28.5-18.9,31.9-20.1C639.61,176.84,642.31,177.74,643.51,180Zm-421.7,4.4c3.1,3,1.9,6-4.1,11-3.2,2.7-8.8,7.7-12.5,11.1s-7.5,6.3-8.5,6.3c-2.4,0-4.7-4.1-3.9-6.8,1-3,23.2-23.2,25.5-23.2A5.41,5.41,0,0,1,221.81,184.44Zm312.8,10.1c11.7,11.6,13.4,14.3,10.6,17.1s-5.7,1.1-17.7-10.1c-12.4-11.4-13.6-13.4-10.4-16.9C520.11,181.24,522.41,182.54,534.61,194.54Zm-428.7,4c22.8,12.4,26.5,16,26.5,26.4,0,8.8-7.6,21.5-15.2,25.5-3.8,2-10.9,1.8-16.5-.5-7.5-2.9-31.5-16.4-32.7-18.3-1.5-2.5.4-7.1,3.5-8.2,2.3-.8,4.9.3,18.6,7.8,18.4,10,22.3,10.8,27.3,5.8,3.3-3.3,5.3-9.4,4-12.5-1.4-3.8-6.1-7.2-20.8-15.2-15.5-8.4-17.6-10.5-15.2-15C88,189.54,90,189.94,105.91,198.54Zm76.4,30.4c1.4,2.5,1.1,3.1-8.3,17.2-5.3,8.1-10.3,14.7-11,14.7a7.61,7.61,0,0,1-3.7-1.9c-2.8-2.2-2.6-2.6,5.7-16.9C174.41,226.14,178.81,222.74,182.31,228.94Zm382.5-.5c2.5,2.7,13.4,20.5,15.7,25.8,1.2,2.6,1.1,3-1,4.7-4.1,3.3-5.6,2.4-10.5-5.9-2.5-4.2-6.6-10.6-9.1-14.1s-4.5-7.1-4.5-7.8c0-1.8,3.6-5.3,5.5-5.3C561.71,225.84,563.41,227,564.81,228.44Zm110.4,12.2c.9,1,4.6,10.4,8.2,21,7.2,21.2,7.2,22.7.9,22.7-3.3,0-3.5-.2-5.7-6.5a44.91,44.91,0,0,0-3.1-7.3c-.5-.5-9.3,2.1-19.7,5.6s-19.9,6.8-21.1,7.2c-1.7.4-2.9,0-4.8-1.9-5.8-5.8-2.9-8.1,20.5-16.1,10.7-3.7,19.8-7,20.3-7.4s-.2-3.4-1.3-6.6c-2.5-7.1-2.5-10.1-.2-11.4C671.71,238.44,673.21,238.64,675.21,240.64Zm-597.9,22.5c8,4,10,12.3,6.2,26-1,3.7-1.6,6.9-1.2,7.1a83.73,83.73,0,0,0,8.6,2.5c8.8,2.5,11.5,4.2,11.5,7.8,0,2.3-3.1,6.3-5,6.3-2.9,0-48.3-13.5-49.6-14.7a5.75,5.75,0,0,1-1.4-3.6c0-3.3,4.9-20.7,7-24.7C58.41,260.14,66.71,257.84,77.31,263.14Zm75.9,15.9c1.9,1.9,1.5,4.3-2.3,14.7-1.9,5.3-4.1,12.2-5,15.3-1.3,4.7-2,5.9-4.1,6.4-2.8.7-6.4-1.8-6.4-4.6,0-2.4,8.8-28,10.6-30.8C147.61,277.64,151.31,277.14,153.21,279Zm439.6,1c.8,1.3,3.6,8.5,6.1,16,5.1,15,5.3,18.3,1,19.4-4,1-5.3-.2-7-6.3-.9-3.2-3.1-10.1-5-15.4s-3.5-10.5-3.5-11.5C584.41,277.64,590.31,276.24,592.81,280Zm100,27c1.4.6,2.8,1.8,3,2.7,1.2,4,4.6,33.8,4.1,35.8-.7,2.9-5.1,4.1-7.2,2.1-.9-1-2.1-6.4-3.2-14.7-1-7.2-2-13.3-2.3-13.6s-3.2-.2-6.4.1l-6,.6,1.7,12.7c1,7.4,1.3,13.3.8,14.2a4.2,4.2,0,0,1-5.9,1.9c-2.3-1.2-2.6-2.2-4-14-1.7-14.2-1-13.3-8.8-12.5-3.7.4-7,1-7.5,1.4s-.1,5.6.8,11.6c1.8,13.1,1.9,17.7.3,19.3s-5.3,1.5-6.7-.2c-1.6-1.9-5.9-35.8-4.9-38.5a6,6,0,0,1,3-3.1c1.3-.6,12-2.3,23.8-3.9s21.8-2.9,22.2-3A8.31,8.31,0,0,1,692.81,307Zm-599.4,23.2c3.5,1.6,4,6.9.8,9-2,1.2-5,1.3-20.3.6-9.8-.5-18-.8-18.2-.6s7.8,2.6,17.6,5.5,18.8,5.9,19.9,6.7c2.6,1.8,3.2,4.5,1.7,8.2-1.4,3.3-3.7,4-30.5,9.4l-11.5,2.3,17.5.8c20.8.9,21.5,1,23.6,4.2,1.5,2.3,1.5,2.7,0,5s-2,2.5-11.9,2.4c-5.6,0-17.3-.4-26.1-.8-18.4-.8-18.6-.9-18.6-10.2,0-6.1,1.3-8.5,5.3-9.4,1.2-.3,9-2,17.2-3.9l15-3.3-16.5-5.2c-10.6-3.4-17.1-6-18.2-7.3-3.3-3.7-1.8-14.1,2.1-15.6C45.31,326.94,90.51,328.84,93.41,330.24Zm44,5.6c1.8,1,1.9,2.1,1.3,18.3-.4,13.3-.9,17.6-2.1,18.9-1.9,2.2-4,2.3-6.4.1-2.2-1.9-2.3-7.6-.7-23.9C130.81,336,132.51,333.24,137.41,335.84Zm469.8,1.3c1.1,1.3,3.2,20.7,3.2,30,0,5.2-.3,5.9-2.5,6.9a5.41,5.41,0,0,1-4.8.1c-2.3-1.1-2.4-1.5-3-18.9-.4-13.1-.2-18.1.6-18.6C602.61,335.44,606,335.74,607.21,337.14Zm66.2,34.7c16.4,1.4,24.1,2.5,25.7,3.5,2.7,1.8,2.8,2.9,1.2,19.5-1.2,13.5-3.5,19.4-8.8,22.4-4.4,2.5-11.8,2.5-16.1,0-3.1-1.9-7-7.8-7-10.9,0-1-1.4-.4-4.7,2.2-6.3,4.8-14.8,8.5-18.7,8.1-2.3-.2-3.3-1-4-3-1.5-4.3,1.3-7.3,11.7-12.4,11.2-5.5,14.4-8.5,14.9-13.9.2-2.9-.1-4-1.2-4.2-.8-.1-5.5-.5-10.3-.8-9.5-.7-12.7-2.4-12.7-6.5,0-2.3,3.3-6,5.4-6C649.51,369.84,660.61,370.74,673.41,371.84Zm-535.7,23.4c.8.8,2.2,5.7,3.1,10.8s2.4,12.2,3.3,15.7c1.9,7.9.9,11.1-3.6,11.1a5.84,5.84,0,0,1-3.9-1.3c-1.2-1.4-4.7-18.8-5.8-28.6-.6-5.6-.5-6.6,1.1-7.8C134.31,393.44,135.91,393.44,137.71,395.24Zm468.9.7c1.9,1,2,1.7,1.3,8.2-.8,8.8-5.2,26.7-7,28.6-1.6,1.7-6.3.7-7.2-1.5-.3-.8.9-8.8,2.6-17.7C600,395.14,601.21,393,606.61,395.94Zm-519.7,9.3c10.1,4.8,15,13.3,15,26.1,0,8.8-1.9,13.7-7.2,18.7-7.7,7.3-24.4,10.9-33.9,7.3-10.6-4-16.5-13-17.2-26-.4-7.3-.1-8.5,2.5-13.4,4.9-9.5,15.4-14.9,28.8-15C80.31,402.84,83.11,403.44,86.91,405.24Zm66.3,47.8c.6.7,2.2,4.4,3.7,8.3a124.83,124.83,0,0,0,6.1,13.4c4.5,8.1,4.4,12.5-.2,12.9-4,.4-5.2-1.1-11.4-14.5-5.1-11.3-6.8-16.9-5.7-19.8C146.51,451.54,151.71,451.34,153.21,453Zm439.2,1.3c1.9,2.3.7,6.4-6.4,21.1-5.3,11-6.8,13.4-8.6,13.4-3,0-6-1.8-6-3.5s12.6-29.1,14.2-31.3C587,452.34,590.91,452.54,592.41,454.34Zm66.5,5.9c3.9,1.6,7.5,6.8,7.5,10.6,0,5.6-6.5,12-12.2,12-3,0-8.4-3.3-9.9-6.1-3-5.7-.3-14,5.6-16.5C653.81,458.54,654.71,458.54,658.91,460.24ZM106.81,471c8.9,2.7,17.6,15.6,17.6,26.1,0,13.2-14.9,26.5-30.8,27.5-11,.8-19.8-4.2-25-14.2-2.2-4.2-2.7-6.4-2.7-12.7,0-6.6.4-8.1,2.7-11.6,2.9-4.5,5.6-5.8,9.4-4.9s4.1,4.8.5,10.3c-3.8,5.7-4.1,10.6-.8,15.4,4.9,7.4,12.3,8.4,23.8,3.3,10-4.5,14.5-11.9,12-19.7-2.1-6.3-7.6-9.7-15.6-9.7-4.9,0-7.7-2.5-6.8-6.1C92.31,470.44,99.21,468.84,106.81,471Zm79.2,40.1c2.9,3.8,7.5,9.3,10.3,12.2,5.1,5.4,6.3,8.9,3.9,11.3-3.5,3.5-8.8-.7-20.7-16.7-6.4-8.6-7.3-11.3-4.3-13C178.41,502.94,180.81,504.34,186,511.14Zm378.3-4.1c1.4,2.5,1.4,2.9-1.2,6.5-4.4,6.3-19.1,22.1-21.1,22.9-1.4.4-2.5,0-3.8-1.6-2.7-3.3-2.3-4.6,3-10.3,2.6-2.9,7.2-8.2,10.1-11.9C558.81,503,561.41,501.84,564.31,507Zm62.8,10.3c6.7,3,14.6,10.4,17.4,16.3,7.7,15.8-5.2,37.1-22.6,37.2-7.8,0-12.1-4.3-8.8-8.9,1.1-1.7,2.5-2.1,6.8-2.1,6.6,0,9.5-1.1,12.9-4.7,7.4-7.9,2.3-20.3-11.3-27.2-14.5-7.5-27.7,5.7-19.5,19.6,2.9,5.1,2.5,7.9-1.4,9.4-3.3,1.3-6.7-1.1-9.5-6.4-4-7.7-3.2-15.6,2.4-24.1C601.41,514.64,613.51,511.34,627.11,517.34Zm-394.3,38.8c7.1,5.1,13.4,10,13.9,10.9,1.6,2.5-.7,6.8-3.6,6.8-4.1,0-28-17.2-29.2-21.1-.8-2.3,1.9-5.9,4.4-5.9C219.21,546.84,225.71,551,232.81,556.14Zm290.4-7.1c3.5,3.5-.1,7.2-21.9,22.6-3.8,2.8-5,3.1-7.1,2.3-2.7-1-4.1-3.3-3.2-5.5.3-.8,4.7-4.3,9.7-7.9s10.9-7.9,13.1-9.6C517.91,547.64,521.21,547,523.21,549Zm-377.8,6.7c5.8,4.1,6.6,11.2,1.9,16.5-9.2,10.5-24.5-.2-18.7-13,1.5-3.3,8.2-6.5,11.8-5.8A18.6,18.6,0,0,1,145.41,555.74Zm434.7,12.1c10.8,4.7,20.3,18.3,20.3,29.2,0,13.1-12.4,26.3-26,27.6-8,.7-14.5-2.1-22.1-9.7-13.2-13.2-14.4-26.8-3.2-39.1a30.93,30.93,0,0,1,15.3-9.6C569.61,564.84,574.11,565.24,580.11,567.84Zm-301.5,14.6c4.5,2,10.7,4.5,13.7,5.5,6.6,2.3,8.1,3.5,8.1,6.4,0,3.2-2.4,4.9-6.4,4.2-5.9-.9-28.6-10.8-29.7-12.9-1.3-2.5,1.3-6.8,4-6.8C269.41,578.84,274,580.44,278.61,582.44Zm194.8-2.2a5.82,5.82,0,0,1,.8,3.8c-.2,1.8-2.3,3.3-9.4,6.8a173,173,0,0,1-16.2,6.9c-6.9,2.4-7.2,2.4-9.2.6-2.3-2.1-2.6-5.7-.7-7.4.8-.6,6.7-2.9,13.2-5.2s13-4.7,14.4-5.4C469.71,578.54,471.91,578.54,473.41,580.24Zm-275.1,3.3c2.4,1.6,2.4,1.8,1.8,14-.7,13.9.1,17.6,4.6,20.6a24.65,24.65,0,0,0,3,1.7,52.92,52.92,0,0,0,4.7-6.3c5.6-8.1,9-11.7,11-11.7,2.8,0,6,3,6,5.7,0,3.7-27.6,43.2-30.7,43.9-1.7.5-4-.4-8.1-3.1-12.2-8.1-20.2-14.6-21.8-17.7-5.7-10.9,3.4-24,15.5-22.4l4.6.6V597c0-12.7.8-15.2,4.9-15.2A8.7,8.7,0,0,1,198.31,583.54Zm146.4,16.2c12.6,1.7,14.6,2.5,14.7,5.8a6.9,6.9,0,0,1-2.1,3.4c-2.4,2.4-5.9,2.3-24.8-.7-10.5-1.6-12.1-2.4-12.1-6.3,0-4.2,1.8-5.4,7-4.6C329.91,597.74,337.71,598.74,344.71,599.74Zm71.5-1.3c2.7,1.8,2.8,3.5.5,6.3-1.8,2.1-11,4-27.4,5.6-7.5.8-9.9-.5-9.9-5.6,0-3.4-.4-3.3,17.5-5.5,7.2-.9,13.2-1.8,13.4-2C411.21,596.34,414.11,596.94,416.21,598.44Zm104.9,4.6c2.9,3.2,23.3,43.1,23.3,45.5s-2.4,4.7-8,7.2c-3,1.3-4.9,1.7-6.1,1-.9-.5-6.8-6.4-13.1-13.2s-11.5-12.3-11.7-12.1,1.4,7.5,3.4,16.3,3.5,17,3.3,18.3c-.2,1.6-1.9,3.2-5.3,5-5.8,3.2-8.6,3.5-10.7,1-2.9-3.3-22.8-43-22.8-45.4,0-3.2,1.8-4.8,5.1-4.8,3.5,0,4.7,1.8,13.4,18.8,3.7,7.3,6.9,13.1,7.2,12.8s-1.4-8.5-3.7-18.2c-3.3-14.1-3.9-18.3-3.1-20.1,1.4-3,5.8-4.8,8.7-3.4,1.2.5,7.7,7.1,14.4,14.5s12.5,13.6,12.7,13.6-3.2-7-7.6-15.5-8.1-16.6-8.1-18c0-2.3,3.2-5.5,5.5-5.5C518.61,600.84,520,601.84,521.11,603Zm-259.4,18.4c8.9,3.7,17,7.4,18,8.2a6,6,0,0,1,1.7,3.8c0,3-17.6,45.5-19.3,46.6-2.5,1.6-6.3.6-21.8-5.8-13.3-5.6-16-7.1-16.5-9a4.05,4.05,0,0,1,4-5.4c1.2,0,7.5,2.3,14.1,5s12.1,4.7,12.5,4.3a50.51,50.51,0,0,0,2.8-6.1l2.1-5.2-3.7-1.6c-2-.9-7.1-2.9-11.2-4.6-8.9-3.5-10-4.3-10-7.2a4.31,4.31,0,0,1,4.1-4.6c.9,0,6.5,2,12.5,4.5s11,4.5,11.4,4.5c1,0,6.2-12.9,5.6-13.9-.3-.4-5.8-3-12.3-5.6-12.1-4.9-15.3-6.8-15.3-9.2,0-1.3,3.4-5.3,4.6-5.3C245.31,614.84,252.81,617.84,261.71,621.44Zm194.1,10.9c1.7,1.7,1.6,1.3,8.1,27.5,5.2,20.7,5.6,23.7,3.1,25.5s-21.9,6.5-27.4,6.5c-9.1,0-16.2-7.9-16.2-18.1,0-8.8,6.2-14.3,19.6-17.5l7.1-1.7-1.9-7.5c-2.3-9.1-2.5-12.6-.8-14.7C449,630.44,453.81,630.44,455.81,632.34Zm-135,7.1c2.3,2.2,2.1,4.5-2.2,26.6l-3.8,19.6,6.5,1.3c8.6,1.5,10.1,2.4,10.1,5.7,0,3.5-1.6,5.2-5,5.2-3.9,0-37.7-6.7-40-8s-2.7-5.2-.4-7.4c1.8-1.9,2-1.9,10.7-.2,3.7.7,6.7,1,6.7.6,0-3.1,7.4-39.2,8.5-41.8s2.1-3.2,4.4-3.2A7,7,0,0,1,320.81,639.44Zm69.9,5.8c4.9,2.4,8.4,7.6,9.7,14.5.5,3,1,12.7,1,21.7,0,13.4-.3,16.5-1.6,17.8-2.6,2.6-6.8,1.9-9.5-1.7-.1-.1-.5-8.8-.8-19.3-.7-21.8-1.3-23.6-8.1-25.4-5.6-1.5-10.5-.4-13.5,3.2-2.5,2.9-2.5,3.1-2.5,22.8,0,21.4-.4,23-5.3,23-5.8-.1-6.7-3.5-6.7-25.1,0-19.1.7-22.8,5.3-27.8,4.3-4.6,9.3-6.2,19.2-5.9C384.21,643.34,388,643.94,390.71,645.24Z" transform="translate(0 0)"/><path class="cls-2" d="M460.91,62.14c-10.4,4.7-16,23.6-9.6,32.5,2.7,3.9,9.7,6.7,14.6,5.8,8.1-1.6,14.8-12,14.9-23.3.1-6.6-1.5-9.8-6.5-13.5C471,61.24,464.61,60.54,460.91,62.14Z" transform="translate(0 0)"/><path class="cls-2" d="M234.31,76.34c-4.2,1.5-11.9,5.4-11.9,6,0,1.7,5.5,12.5,6.4,12.5,2.5,0,14.1-6.7,15.9-9.2s1.8-3,.7-5.8C243.31,74.84,240.61,73.94,234.31,76.34Z" transform="translate(0 0)"/><path class="cls-2" d="M589.21,144.54l-5.7,5.8,2.6,3c3.9,4.5,8.4,7.5,11.2,7.5,3.4,0,8.1-4.7,8.1-8.1,0-2.7-7.1-12.8-9.5-13.6C595.31,138.94,592.31,141.44,589.21,144.54Z" transform="translate(0 0)"/><path class="cls-2" d="M61.41,276c-1.8,3-4.6,12.6-3.9,13.2.2.1,3.7,1.2,7.7,2.3l7.3,2.1,1.1-2.6a48.43,48.43,0,0,0,1.5-8.3c.5-4.9.3-5.8-1.8-7.7a8.32,8.32,0,0,0-6.1-2.2C64,272.84,63.11,273.34,61.41,276Z" transform="translate(0 0)"/><path class="cls-2" d="M676.21,389.44c-.5,14.2.7,17.4,6.8,17.4,5.9,0,8.4-5.3,8.4-18.3v-3.7h-5.2a42.3,42.3,0,0,1-7.5-.6C676.51,383.64,676.41,383.94,676.21,389.44Z" transform="translate(0 0)"/><path class="cls-2" d="M67.71,415.84a20.71,20.71,0,0,0-12.1,8.1c-2,2.8-2.3,4.3-2,8.7.8,9.9,6.9,14.6,17.9,13.9,16.4-1,24.9-11.8,18.7-23.6C86.51,415.74,78.51,413.24,67.71,415.84Z" transform="translate(0 0)"/><path class="cls-2" d="M557.81,581.24c-4.1,4-4.4,4.7-4.4,9.5,0,6.5,2.4,11.4,8.3,16.8,8.3,7.7,16.7,8,23.6.9,6.1-6.3,5.3-14.9-2.4-23.4-5.4-6-9.7-8.2-16-8.2C562.61,576.84,561.71,577.24,557.81,581.24Z" transform="translate(0 0)"/><path class="cls-2" d="M181.41,619.84a7.77,7.77,0,0,0,.3,10.7c1.2,1.1,4.5,3.6,7.4,5.7l5.2,3.7,4.1-6.2c2.3-3.3,3.8-6.5,3.4-6.9-3-2.7-14.1-9-16.1-9A7.38,7.38,0,0,0,181.41,619.84Z" transform="translate(0 0)"/><path class="cls-2" d="M443.41,665.74c-2.9,1.1-6,2.7-6.7,3.7-3.5,4.8.4,12.4,6.3,12.4,2.8,0,12.1-1.7,13.1-2.5a16.62,16.62,0,0,0-.7-3.6c-.5-1.9-1.4-5.3-2-7.7C452.21,663.14,451.41,663,443.41,665.74Z" transform="translate(0 0)"/></svg>