<svg id="Capa_1" data-name="Capa 1" xmlns="http://www.w3.org/2000/svg" viewBox="0 0 738.25 738.46"><defs><style>.cls-1{fill:#fff;stroke:#000;stroke-miterlimit:10;}.cls-2{fill:#8c5383;}</style></defs><title>user</title><circle class="cls-1" cx="372.39" cy="372" r="344.8"/><path class="cls-2" d="M350.13.44c-76.8,3.5-150.3,31.3-211.7,80-16.4,13.1-45.1,41.8-58.2,58.2a369,369,0,0,0-75.5,169c-6.31,36.4-6.31,87,0,123.4a369,369,0,0,0,75.5,169c13.1,16.4,41.8,45.1,58.2,58.2a369,369,0,0,0,169,75.5c36.4,6.3,87,6.3,123.4,0a369,369,0,0,0,169-75.5c16.4-13.1,45.1-41.8,58.2-58.2a369,369,0,0,0,75.5-169c6.3-36.4,6.3-87,0-123.4a369,369,0,0,0-75.5-169c-13.1-16.4-41.8-45.1-58.2-58.2C528.33,23.74,442.33-3.86,350.13.44Zm27.7,38.2a121.64,121.64,0,0,1,6.8,12c2.8,5.3,5.2,9.7,5.5,9.7s3.7-4.6,7.5-10.2c7.9-11.3,10.1-13,14-10.4,4.2,2.8,3.2,5.5-6.7,18.8-9.7,13.1-10.6,15.2-10.7,26.6-.1,5.3-1.3,9-3.5,10.4-2,1.4-5.3.8-7.1-1.2-1.6-1.8-1.7-3.2-1.1-12.7l.6-10.7-7.5-13.7c-4.1-7.6-7.5-14.6-7.5-15.7C368.13,36.54,374.63,34.64,377.83,38.64Zm81.5,10.7c7.4,2.3,13.8,7.3,17.1,13.4,3,5.7,3,17.7-.1,25.7-4.7,11.8-13.1,18.2-24.2,18.3-11.9.1-22.4-5.6-27.3-14.8-3.4-6.4-3.1-19,.6-27.1C432.43,49.84,443.93,44.54,459.33,49.34Zm-196.9,7.2c2.1,1.7,15.4,33,16.3,38.6,1.8,11.5-9.1,22.2-25.5,24.8-8.1,1.3-15.4-3.3-20-12.5-5.1-10.1-13.1-30-13.1-32.6,0-3.1,4.1-6,7.4-5.1,2.6.6,2.8,1,11.1,20.6,6.7,15.8,9.2,19,14.8,19,8.5,0,14.5-5.7,13.2-12.6-.3-1.9-3.5-10.3-7-18.7s-6.5-16.2-6.5-17.4c0-2.3,3.4-5.3,6-5.3A7.38,7.38,0,0,1,262.43,56.54Zm64.6,3.2c8.7,4.6,8.1,17.4-1,21-7.3,2.9-14.5-1.3-15.6-9.2A11.52,11.52,0,0,1,327,59.74Zm187.7,11.1c2,3.1,1.8,3.7-7.6,20.7-8.9,16.3-9.8,19.3-7.5,23.7,1.8,3.5,8,7.1,12.4,7.1s7.9-4.2,17-20.8c4.5-8.3,8.8-15.3,9.7-15.6,4.2-1.6,8.4,1,8.4,5.1,0,3.5-15.8,31.9-20.2,36.4-6.7,6.9-15.3,7.4-26,1.7-12.8-6.8-16.8-15.6-12.5-27.3,1.5-4,15.5-29.6,17.5-31.8A5.69,5.69,0,0,1,514.73,70.84Zm-313.5,25.5c11.6,6,21.2,22.3,19.3,33-2.3,12.5-13.9,22.7-27.1,23.8-5.3.4-7,.1-11.7-2.2-10.2-5-18.5-16.9-19.4-27.7-1-12.7,6.8-23,21.1-28.1A22.12,22.12,0,0,1,201.23,96.34Zm185.7,33.6c2.7,1.9,2.9,6,.3,7.4-1.1.6-9,1-18.5,1-15.9,0-16.5-.1-18-2.2-2-2.8-2-4.3,0-6.2C353,127.64,383.63,127.64,386.93,129.94Zm-245.2,1.2c2,1.3,3.1,4.5,6.8,18.6l3.6,13.9,8,7.6c8.6,8.1,9.6,10.5,6,14.1-3.4,3.4-5.6,2.5-15.1-6.5l-6.6-6.2-13.4-2.2c-16-2.7-19.5-3.7-20.3-5.7-1.1-2.8-.6-5.1,1.4-6.9s2.4-1.8,14.5.5c6.9,1.3,12.7,2.1,13,1.8s-.8-5.3-2.4-11.1-3.1-11.6-3.1-13C134.13,131.74,138.53,128.94,141.73,131.14Zm186.8,2.8a4.24,4.24,0,0,1-.1,6.6c-1,.9-5.4,2.3-9.9,3.2a138.61,138.61,0,0,0-13.9,3.6c-9.6,3.3-14.1,2.2-13.3-3.2.4-3,5.4-5.3,19.3-8.9C323.43,131.94,326.43,131.74,328.53,133.94Zm98.1,1.4c20.4,5.4,20,5.2,20.3,8.6.5,4.6-1.8,6-7.6,4.7-18.8-4.2-27.8-6.6-28.9-7.5-1.6-1.3-1.7-6-.1-7.6C412.13,131.74,414.43,132,426.63,135.34Zm152.5.5a10.31,10.31,0,0,1,6,9.8c0,12.3-14.6,16.8-21,6.5C558,142.44,568.93,130.54,579.13,135.84Zm-306.2,17.8c.9,4.5-.7,6.4-7.8,9.6a134.9,134.9,0,0,0-13.6,7.1c-6.5,3.9-8.7,4.6-11.8,3.4-1.7-.6-2.2-5-.8-7.1.9-1.3,14.8-9.7,21.7-13C266.53,150.84,272.43,150.84,272.93,153.64Zm212.8,4.3c15,8.4,17.6,11.1,13.8,14.8-2.3,2.3-5.9,2-10.4-1-2.1-1.4-8.3-4.9-13.7-7.8-7.6-3.9-9.9-5.6-10.1-7.4C464.23,149.14,470.63,149.64,485.73,157.94Zm147,7.9c1.5,2.3,1.4,2.9-3.5,14.2-2.8,6.5-5.1,12.1-5.1,12.5s6,.4,13.4.1l13.4-.6,1.7,2.6c2.1,3.3,1.2,6.2-2.3,7.5-1.5.6-9.3,1.3-17.5,1.5l-14.8.5-9,6.1c-6.8,4.6-9.7,6-11.3,5.5a6.18,6.18,0,0,1-4.6-6c0-2.4,1.3-3.6,12.5-11.7,6-4.3,6.1-4.5,11.3-17.4,3-7.2,6-14,6.8-15.2C625.83,162.44,630.63,162.64,632.73,165.84Zm-410.8,17.7c.7.7,1.2,2.6,1.2,4.3,0,2.6-.8,3.7-4.4,6.3-2.5,1.8-8,6.6-12.4,10.7-8.2,7.7-11.3,9-13.2,5.6-2.1-4-1-5.7,10.7-16.8C215.73,182.24,218.93,180.54,221.93,183.54Zm310,7.7c13.9,12.7,14.4,13.3,14,17.2-.3,3.2-.5,3.4-3.9,3.4-3.2,0-4.8-1.2-15.3-11.2-12-11.6-13.9-14.9-9.8-17.2C520.33,181.44,522.33,182.44,531.93,191.24ZM113.13,211c7.7,7,4.3,18.6-5.7,20a11.73,11.73,0,0,1-13.3-11.7C94.13,210.24,106.33,204.94,113.13,211Zm546.2,12.5c10.2,3,18.2,15.6,18.3,28.4,0,6.1-.4,7.7-3,11.9-9.5,15.3-34.3,20.6-45.9,9.7-6.7-6.4-11.3-18-10.2-25.9C620.83,230.94,642,218.34,659.33,223.54Zm-476.8,4.9c.8,2.4-.2,4.3-8.8,17.3-5.9,9-10.3,14.6-11.3,14.6-2.1,0-5.3-2.9-5.3-4.7s13.8-24.8,16.8-28S181.23,224.84,182.53,228.44Zm381.9-.7c2.8,3,16.7,26.1,16.7,27.8,0,2-3.2,4.8-5.6,4.8-1.7,0-3.3-1.8-7.3-8.5-2.8-4.6-6.9-11-9.1-14.1-4.3-6.2-4.8-8.4-2.4-10.8C558.93,224.64,561.93,224.94,564.43,227.74ZM76,261.94c9.1,2.5,18.6,5.7,21.1,7,9.5,5.1,12.3,15,8,28-4.1,12.3-12.6,18-23.7,15.9-7.4-1.3-32.8-8.7-35-10.1-4.4-2.8-2.1-10.4,3-10.4,1.2,0,9.4,2,18.2,4.5,19.1,5.4,21.6,5.5,25.5,1.7,3.5-3.5,5-11,2.9-14.9-1.9-3.5-5.4-5.1-22.5-9.8-8.3-2.4-16-4.8-17.2-5.4-4-2.1-3.7-7.6.6-10C59.13,257.14,57.23,256.74,76,261.94Zm76.9,16.6c1.9,1.9,1.6,3.2-3.9,20-5.4,16.3-6.4,17.7-10.9,16.3-3.6-1.2-3.5-4.9.9-18.3,4.9-15,7.1-19.2,10.4-19.2A5.46,5.46,0,0,1,152.93,278.54Zm440,1.7c3.2,5.3,10.5,28.8,9.8,31.5s-4.3,4.3-6.9,3.3c-1.3-.5-11.8-30.7-11.7-33.8C584.13,276.64,590.33,275.94,592.93,280.24Zm99.8,11.6c1.9,2.9,1.1,6-1.9,7.9-1.2.8-9.2,2.6-17.7,4.1-17.1,2.9-21,4.2-23.4,7.6-3.5,5.1-.7,15.1,4.9,17.8,2.7,1.3,4.7,1.2,19.5-1.3,9.1-1.6,17.7-3,19.1-3.3a4.78,4.78,0,0,1,4.8,1.6c2.6,2.6,2.7,5.2.4,8-1.5,1.7-5,2.6-19.8,5.2-20.2,3.5-24.7,3.4-30.6-.6-7.9-5.2-12.3-21.9-8.5-32,3.3-8.4,8.3-10.9,30.6-14.9C688.13,288.74,690.63,288.74,692.73,291.84Zm-612.3,38.8c10.1,4.6,15,12.2,15,23.7.1,12.5-5.3,21.8-15.2,26.4-6.7,3-20.7,2.9-27.6-.2-10.8-4.9-15.4-12.2-15.5-24.3,0-14.9,5.6-23.4,18.3-27.5C62,326.54,73.53,327.44,80.43,330.64Zm56.7,4.7c1.8,1,1.9,2.1,1.3,18.3-.4,13.3-.9,17.6-2.1,18.9-1.9,2.3-4.6,2.3-6.8.1-1.5-1.5-1.6-3.2-1-14.8C129.73,336,131.13,332.14,137.13,335.34Zm469.8,1.3c1.3,1.5,3.5,24.3,3,31.1-.4,5.8-2.2,7.5-6.5,6l-2.8-.9-.7-17.5c-.4-9.6-.5-18.1-.3-18.8C600.23,334.94,605.63,334.94,606.93,336.64Zm70.2,43.3c3.4,2.1,6,6.3,6,10.1,0,3.5-3.1,8.8-6.1,10.4-3.2,1.7-9.1,1.5-12.1-.5-3.8-2.5-6.2-8.9-4.8-13.1C662.53,379.44,670.63,376.14,677.13,379.94Zm-535.8,28.9c1.6,7.7,3.1,15.5,3.5,17.2.3,2,.1,3.9-.7,4.8-1.6,1.9-6.4,2-7.9.1-2.3-2.7-7-31.8-5.7-35.1.4-1.2,1.6-1.5,4.3-1.3l3.7.3Zm464.9-13.5c2.3,1.3,2.4,4.4.4,16.2-2.1,11.6-4.7,19.9-6.7,21.1-2.4,1.6-6.8-.7-6.8-3.5,0-3.5,6.2-32.2,7.3-33.6S603.63,394,606.23,395.34Zm-546.4,9.2,13.3,5.9,10.4-1.6c7.7-1.2,11-1.4,12.5-.6,3.8,2.1,3.9,8.1.1,10.1-1,.5-6.2,1.7-11.6,2.5l-9.7,1.6-9.1,8.3c-11.9,10.8-14.4,12.6-17.2,12.6s-5.8-4.1-4.9-6.9c.3-1.1,4.3-5.1,8.9-9s8.9-7.7,9.5-8.5c1-1.1-.9-2.3-10.1-6.1a136.36,136.36,0,0,1-12.5-5.7c-2.1-1.7-1.5-6.5.9-8.2C43,397,43.13,397,59.83,404.54Zm631.7,38.4c2.1,2,2,5-.2,7.2-1,1-7,3.1-13.5,4.7s-11.7,3.3-11.7,3.6,3.8,5.1,8.5,10.4,8.5,10.3,8.5,10.9c0,2.5-3.2,5.6-5.7,5.6-2.9,0-5.1-2.2-16.8-16.3l-7-8.4-8.4-2.4c-10.7-3-14.1-5.1-14.1-8.4,0-2.4,3.1-6.5,4.9-6.5.4,0,5.4,1.3,10.9,3l10.1,3,13.3-3.9C685,441,689.23,440.54,691.53,442.94Zm-538.6,9.6a80.24,80.24,0,0,1,4.1,9.3c1.8,4.4,4.6,10.4,6.2,13.3,2,3.6,2.9,6.4,2.7,8.5-.3,2.9-.6,3.2-3.8,3.2-3.5,0-3.5,0-10.2-13.4-6.4-12.7-8.3-19.3-6.1-21.4C146.93,450.84,151.83,451.24,152.93,452.54Zm439,1c2,2,1.4,5.2-3.4,15.9-7.3,16.5-9,18.9-13,18.9-4.6,0-5.4-3.3-2.4-9.8,1.3-2.6,4.3-9,6.7-14.2s4.9-10.1,5.5-10.7C586.63,452,590.33,451.94,591.93,453.54Zm-496.2,19.9c5,4.7,4.8,12.3-.6,17.1-7.7,7-20.6-.3-18.5-10.6C78.33,471,89.23,467.34,95.73,473.44Zm542.6,12c16.9,3.6,29.4,17.8,27.3,31.2-1.7,10.1-7.9,19.3-15.9,23.2-4.8,2.3-6.5,2.7-12.3,2.3-16.7-1-31.3-14-31.3-28,0-11.5,8.7-24.3,19-27.8C631.73,484,631.63,484,638.33,485.44Zm-457.7,18.7a37.53,37.53,0,0,1,4.5,5.2c1.9,2.5,6.3,7.8,9.8,11.7,5.4,6.2,6.3,7.7,6,10.5-.3,3-.6,3.3-3.8,3.6s-3.9-.2-12.1-10c-10.5-12.6-11.9-14.7-11.9-17.3A4.76,4.76,0,0,1,180.63,504.14Zm382.9.8c3.3,3.3,2.4,5.1-10.2,19.7-10.4,12.1-12.4,13.3-15.6,10.1-2.6-2.6-1.9-5.1,3.2-10.6,2.6-2.9,6.9-8.2,9.6-11.8C557.73,502.84,560.13,501.44,563.53,504.94Zm-427.9,14.3c8.1,3.6,16.8,16.6,16.9,25.2.2,8-3.7,12.6-20.8,25.1-16,11.6-19.1,12.8-22,8.6-3.4-4.8-2.4-6,16.7-19.7,14.4-10.5,16.6-13.2,14.8-19.2-1.5-5-7.2-9.9-11.4-9.9-3.8,0-6.2,1.4-20.5,11.8-5.9,4.3-11.8,8.4-13,9.1-4.8,2.5-10.1-1.3-8.8-6.3.7-2.7,28.6-23.1,34.4-25.2C127,516.94,130.93,517,135.63,519.24Zm465.7,24.9c5.2,3,27.1,22.1,29.4,25.7,1.3,1.9,1.3,2.8.3,4.7-3.3,6.3-5.8,5.4-21.8-8.7-15.4-13.5-18.4-15-23.9-12.1a17.17,17.17,0,0,0-7.6,9.3c-1.4,4.3,1.9,8.6,15.2,20.3,7.1,6.3,13.5,12.7,14.2,14.2,2.4,5.5-3.4,9.7-8.8,6.2-5.2-3.4-27.1-23.5-29.1-26.8a17.85,17.85,0,0,1-1.3-16.9c2.5-5.5,10.3-14.1,15.2-16.7C588.43,540.44,595.63,540.74,601.33,544.14Zm-369.5,10.8c15.5,11.2,15.3,11,15.3,13.7s-1.7,4.7-4.4,4.7c-2,0-22.3-13.1-27-17.5-1.4-1.3-2.6-3.3-2.6-4.4a5.56,5.56,0,0,1,5-5.1C219.13,546.34,225.33,550.24,231.83,554.94Zm291.9-6.1c1.4,3.6-.8,6.4-11.3,14.2-15.7,11.6-16,11.8-18.8,10.5a6.42,6.42,0,0,1-3.1-3.4c-.8-2.5-1.7-1.6,15.6-14.7,7.8-5.9,11.3-7.9,13.8-8C522,547.34,523.43,547.94,523.73,548.84Zm-345.2,20.1c2.9,1,7,3.8,10.6,7.1,12.9,11.9,13,26.2.2,40.4a45.09,45.09,0,0,1-9.6,7.7c-21.3,11.1-47.4-13.3-37.7-35.3,5.4-12.2,17.4-21.3,28.2-21.5A31.66,31.66,0,0,1,178.53,568.94Zm103.9,14.5c6.7,2.7,13.2,5.4,14.5,5.9,2.7,1.2,3.6,3.2,2.8,6.5-.5,2-1.3,2.5-3.6,2.5-3.3,0-14.1-3.7-24.7-8.6-6.6-3-7.3-3.6-7.3-6.1,0-3.3,1.6-5.3,4.2-5.3C269.33,578.34,275.63,580.64,282.43,583.44Zm190.7-3.7c2.3,2.9.7,6-4.5,8.8-9.5,5.2-25.3,11.1-28,10.4s-4.4-5-2.8-7.5c.6-.9,7.4-3.9,15.3-6.8s14.5-5.5,14.8-5.8C468.93,577.84,471.93,578.34,473.13,579.74Zm-129.5,19.2c7.2.9,13.6,2.1,14.3,2.7,1.7,1.4,1.5,4.1-.7,6.8l-1.8,2.3-14.9-1.8c-17.1-2-19.8-2.9-20.2-6.9-.5-4.3,1.5-6,6.3-5.3C328.83,597,336.53,598,343.63,598.94Zm72.7-.9c2.3,2.1,2.3,4.5-.1,6.7-2,1.8-12.2,3.7-27.1,5.1-8.7.8-10.4-.1-9.8-5.7l.3-3.3,13-1.6c7.2-.9,13.9-1.9,15-2.1C411.53,596,414.53,596.34,416.33,598Zm130.9,10.6c4.4,3,6.1,6.3,5.5,11a11.58,11.58,0,0,1-15.8,9.4,11,11,0,0,1-7.1-10.7c0-4.9,2.4-8.7,6.6-10.5C540.93,605.84,543.33,606,547.23,608.64Zm-311.6.4c2.3,2.3,1.5,5.3-3.9,14.8l-4.6,8,.6,16.5c.6,14.9.5,16.7-1,18.3-2.3,2.3-5.1,2.2-7.6-.3-1.6-1.6-2-3.3-2-8.9,0-3.7-.3-9.5-.6-12.8l-.7-6-10.6,5.8c-13.5,7.5-18.1,7.6-18.1.8,0-3.5,2-4.9,17.5-12.7l12-6,4.4-7.8a101,101,0,0,1,5.9-9.7C228.83,606.84,233.43,606.84,235.63,609Zm240.5,14.3c1,.5,3.4,5.1,5.5,10.2s4.1,9.8,4.7,10.5,6,4.8,12.1,9.1,12,8.9,13.1,10c2.4,2.7,1.5,6.5-1.9,8-3.2,1.5-4,1.1-16.2-7.9l-9.1-6.8-1.7,9.7c-2.6,15-3.3,17.2-6,18.4-1.9.9-2.9.7-5-.6-3.2-2.1-3.2-3.5.4-21.1l2.9-13.9-3.9-9.8c-2.1-5.4-3.9-10.3-3.9-10.9,0-1.3,4.6-5.9,6-5.9A8,8,0,0,1,476.13,623.34Zm-41.4,17.4c9.9,4.6,15.6,15.2,15.7,29.1.1,6.8-.3,8.8-2.6,13.3-5,9.5-16,14.9-28.3,13.9-15.1-1.2-24.8-13.6-24.7-31.8,0-8.4,3.5-16.4,8.8-20.4C412.23,638.24,425.63,636.44,434.73,640.74Zm-68.4,4.3a19.63,19.63,0,0,1,6.7,4.9c4.7,5.3,5.4,9.7,4.6,28.9-.7,16.8-1.5,21.2-3.8,22.7a6.37,6.37,0,0,1-7.2-.8c-1.4-1.5-1.6-4.2-1.3-22l.3-20.3-2.7-2.7c-3.1-3.2-10.8-4.3-14.8-2.2-4.6,2.4-5.8,6.8-6.7,26-.9,19.4-1.5,21.1-6.9,21.1-5.2-.1-5.7-1.9-5-21.5.4-10.6,1.3-19.7,2.1-22.5a20.22,20.22,0,0,1,12.6-12.9C349.43,642.14,360.53,642.74,366.33,645Zm-80.2,3.9c9.2,3.7,9.4,17.2.3,21.1-5.1,2.1-9.5,1-13.3-3.4-2.8-3.2-3.2-4.1-2.7-8,.5-4.9,2.7-7.9,7.2-9.9C281.43,647,281.33,647,286.13,648.94Z"/><path class="cls-2" d="M445.93,58.94c-7.2,3-12.9,16-11.3,25.5,1.4,8.3,9.8,13.7,18.3,11.9,7.8-1.8,13.8-12.4,13.6-23.9C466.23,61.54,455.83,54.74,445.93,58.94Z"/><path class="cls-2" d="M184.33,105c-3.7.7-9.9,7.4-10.7,11.5-1.4,7.5,5.8,20.3,13.6,24.3,4,2.1,10.8,1.9,14.6-.5,9-5.5,9.5-16.5,1.2-27C197.43,106.24,191.63,103.64,184.33,105Z"/><path class="cls-2" d="M640.23,237.44c-7.8,3.9-11.4,8.9-11.3,15.4.1,13,13.4,18.8,27,11.8,7.7-3.9,11.6-9,11.6-15.1C667.43,235.74,654.83,230.14,640.23,237.44Z"/><path class="cls-2" d="M56.93,340.94c-6.7,2-10.2,6.8-10.2,13.9q-.15,12.75,14.7,15.6c8.3,1.5,15.7-.2,20.2-4.7,8.8-8.7,3.6-22.5-9.5-25.3C65.63,339,62.73,339.14,56.93,340.94Z"/><path class="cls-2" d="M625.13,498c-7.1,3.7-10.2,13.2-6.6,20.1,5.2,10,22,16,29.3,10.6,6.7-5,9.1-13,5.9-19.2C648.73,500,633.23,493.84,625.13,498Z"/><path class="cls-2" d="M167.73,579.84c-2.1.7-5.9,3.3-8.4,5.7-10.4,10-10.8,20.9-1,28.2,4.3,3.1,11.7,2.7,17-1,6.8-4.7,11.1-11.6,11.6-18.3.4-7.1-2-11.4-8.1-14.1C173.83,578,172.83,577.94,167.73,579.84Z"/><path class="cls-2" d="M414.33,650.34c-5.3,3.2-7.2,7.4-7.2,15.6,0,12.7,6.6,21.4,16.3,21.4,13.7,0,19.8-16.4,11.5-31.1A14.8,14.8,0,0,0,414.33,650.34Z"/></svg>