<svg id="Capa_1" data-name="Capa 1" xmlns="http://www.w3.org/2000/svg" viewBox="0 0 738.41 738.84"><defs><style>.cls-1{fill:#fff;stroke:#000;stroke-miterlimit:10;}.cls-2{fill:#8c5383;}</style></defs><title>user-round1</title><circle class="cls-1" cx="371.8" cy="370.85" r="344.8"/><path id="fondo-negro" class="cls-2" d="M349.3,2.1c-76.5,4-149.2,31.8-210.8,80.6-14.2,11.2-45.6,42.6-56.8,56.8C32.1,202.1,5.1,273.5,1.1,352.8c-4.7,90.2,23.5,177.6,80,248.9,13.1,16.4,41.8,45.1,58.2,58.2a368.17,368.17,0,0,0,192.1,78.6c19.2,2,58,2,77.2,0,84.1-8.9,159.6-44.5,220.2-103.9,61.9-60.6,99.6-138.8,108.7-225,2-19.2,2-58,0-77.2a368.17,368.17,0,0,0-78.6-192.1c-13.1-16.4-41.8-45.1-58.2-58.2A369.06,369.06,0,0,0,418,4.5C407.7,3.2,371.6.8,366.5,1.2,365.4,1.2,357.6,1.7,349.3,2.1Zm52.6,38c8.4,1,12.4,3.1,15.2,7.5,2.4,3.9,2.5,11.3.3,16-1.7,3.4-7.5,7.4-10.9,7.4-1.3,0-1,.8,1.3,3.7,4.3,5.5,9.2,15.8,9.2,19.2,0,5.1-6,6.9-9.7,2.8-1.2-1.2-4.1-6.3-6.7-11.3C395.4,74.9,392.5,72,386.9,72H383l-.1,5.2c-.1,9.2-1.4,16-3.4,17.4-2.9,2.1-6.3,1.7-8.1-1.1-1.5-2.2-1.4-4.3.5-27.2,2.4-29.9,1.8-28.8,14.6-27.8C390.9,38.8,397.8,39.5,401.9,40.1Zm61.3,11c16.1,3.4,24.6,13.8,23.6,28.7-1,13.6-9.7,26.2-20.3,29.2-8.8,2.5-20.4-.5-27.9-7-9.1-8.1-10.8-21.9-4.1-35.5,4.8-9.9,11.2-14.5,22.7-16.4C457.6,50.1,460.3,50.5,463.2,51.1Zm-206,9.6c2.3,2.6,18.8,45,18.8,48.2a6.25,6.25,0,0,1-1.2,3.9c-1.6,1.6-6.3,1.5-7.6-.1-.9-1.1-5.6-12.6-13.3-32.6-.9-2.3-1.1-2.2-4.7,3-2.9,4.1-4.5,5.5-6.7,5.7-2.6.3-5.5-1.7-5.5-3.8,0-.4,2.2-3.5,5-6.9a36.64,36.64,0,0,0,6.6-11.9c.9-3.1,2.2-6,2.8-6.4A4.27,4.27,0,0,1,257.2,60.7Zm68.3,1.5c6.4,5,6.5,13.1.4,18.3-9.1,7.6-22.5-3-17.3-13.7C311.7,60.1,320,57.9,325.5,62.2ZM519.8,72.6c3.8,2.6,2.8,6.2-6.3,22-9.3,16.3-10.3,19.1-8.5,23.5,1.5,3.6,8.5,7.9,12.7,7.9,4.7,0,8-3.9,17.4-20.4,9-15.9,11-17.9,15.4-15.6,4.9,2.6,4.3,4.8-5.5,22.1-5.1,8.8-10.7,17.5-12.5,19.3-7,7.1-17,6.9-28.3-.5-12.5-8.1-14.5-16.4-7.6-30.2,5.1-10.1,14.7-26.2,16.6-28C515.7,70.6,516.9,70.6,519.8,72.6ZM194,99.6c4.1,1.2,6.7,2.9,11,7.2,11.3,11.3,14.6,24.4,8.7,34.4-3.1,5.3-21.5,19.8-25.2,19.8-2.8,0-3.8-1.2-18.3-20.6-16-21.5-16.1-21.7-11.8-25.7,4.8-4.4,18.8-14,22.4-15.3C185.7,97.7,187.6,97.7,194,99.6Zm386.5,12.9a7.81,7.81,0,0,1,2.5,4.7c-.1,1.3-1.6,11.6-3.4,23s-3.2,20.8-3.1,20.8,5-5.4,11-12.1,11.8-12.7,13.1-13.6a5.2,5.2,0,0,1,7.9,5.8c-.8,2.5-31.9,36.9-34.9,38.6s-4.4,1.6-7.1-1.2c-3.2-3.1-3.2-4.6.5-27.8,1.7-10.4,2.9-19.1,2.7-19.3s-5.4,5.3-11.5,12.1c-9.3,10.4-11.8,12.5-14.1,12.5-3.9,0-6.8-3.3-5.5-6.5.9-2.5,30.4-35.7,33.9-38.1C575.4,109.4,577.8,109.7,580.5,112.5ZM388.2,131.7c2.2,2,2.3,4.1.1,6.5-1.4,1.6-3.4,1.8-18,1.8-15,0-16.5-.2-18.3-2-2.4-2.4-2.5-3.8-.3-6.2,1.4-1.6,3.4-1.8,18.1-1.8C383.8,130,386.6,130.3,388.2,131.7Zm-58.8,3.9c3.8,3.7.3,7.7-7.9,9.3-3.3.6-9.9,2.3-14.7,3.7-11.7,3.6-16.8,2.1-14.1-3.9,1.1-2.4,11.7-6.4,24.3-9.1C325.7,133.7,327.6,133.7,329.4,135.6Zm104,3c6.6,1.9,12.6,4,13.3,4.6,1.6,1.3,1.7,5,.1,6.6s-4,1.5-13.2-1.2c-4.4-1.4-11-3-14.6-3.7-7.7-1.4-9-2.3-9-5.8C410,132.9,413.4,132.9,433.4,138.6Zm-276.5,14c10.5,9.1,19.3,17.5,19.7,18.6.9,2.8-1.3,6.4-4.7,7.8-2.3,1-6.7.7-23.9-1.7-11.5-1.6-21-2.8-21-2.7s5.5,5.1,12.3,11,12.6,11.3,13,12.1c2.4,4-2.5,9.4-6.8,7.5-3.3-1.5-36.8-31.1-38.3-33.9-1.8-3.4.1-8.1,3.6-9,1.3-.3,12.3.7,24.4,2.4,13.6,1.8,21.4,2.5,20.6,1.8s-6.8-6-13.5-11.9c-10.1-8.8-12.3-11.2-12.3-13.5,0-3.4,1.7-5.1,5.2-5.1C137.3,136,142.2,139.7,156.9,152.6Zm116.9,3.7c.5,3.9-1,5.3-9.3,9.1a126.83,126.83,0,0,0-12.8,6.9c-7.8,5-12.7,4.7-12.7-.8,0-3.2,3.4-5.9,16.1-12.5,8.6-4.5,12.3-5.9,14.9-5.8C273,153.5,273.5,153.9,273.8,156.3Zm207.5.8c18.6,9.3,22.7,13,19,17.1-2.2,2.4-5.8,2.3-9.6-.5-1.8-1.2-7.9-4.7-13.7-7.7-8.2-4.3-10.6-6-10.8-7.8C465.3,151.7,469.8,151.4,481.3,157.1Zm148.4,6.1c1.1,1.3,4.8,6.2,8.1,11.1,9.4,13.6,10.1,20.2,3.3,30.9-5,7.9-17,15.3-26.3,16.4-4.5.5-6.1.1-10.8-2.3-4.5-2.3-6.9-4.6-12.7-12.3-9.4-12.4-10-14.2-6.5-18,4.8-5.2,37.5-27.9,40.3-28A7.37,7.37,0,0,1,629.7,163.2ZM222.4,185.6c3.1,3,1.9,6-4.1,11-3.2,2.7-8.8,7.7-12.5,11.1s-7.5,6.3-8.5,6.3c-2.4,0-4.7-4.1-3.9-6.8,1-3,23.2-23.2,25.5-23.2A5.41,5.41,0,0,1,222.4,185.6Zm312.8,10.1c11.7,11.6,13.4,14.3,10.6,17.1s-5.7,1.1-17.7-10.1c-12.4-11.4-13.6-13.4-10.4-16.9C520.7,182.4,523,183.7,535.2,195.7Zm-426,4.5c8.3,4.6,16.8,10,18.9,12,6.9,6.7,7.4,15.3,1.7,26C123,251,114.2,255,102.5,250.7c-4-1.5-29.6-15.5-31.7-17.5a5.62,5.62,0,0,1,.7-8.8c3.1-2,3.7-1.8,20.7,7.6,16.3,8.9,19.3,9.8,23.7,7.5,3.5-1.8,7.1-8,7.1-12.4s-4.2-7.9-20.2-16.5c-7.9-4.3-14.9-8.5-15.5-9.4a5.73,5.73,0,0,1,4.4-9.2C93,192,100.9,195.7,109.2,200.2Zm73.7,29.9c1.4,2.5,1.1,3.1-8.3,17.2-5.3,8.1-10.3,14.7-11,14.7a7.61,7.61,0,0,1-3.7-1.9c-2.8-2.2-2.6-2.6,5.7-16.9C175,227.3,179.4,223.9,182.9,230.1Zm382.5-.5c2.5,2.7,13.4,20.5,15.7,25.8,1.2,2.6,1.1,3-1,4.7-4.1,3.3-5.6,2.4-10.5-5.9-2.5-4.2-6.6-10.6-9.1-14.1s-4.5-7.1-4.5-7.8c0-1.8,3.6-5.3,5.5-5.3C562.3,227,564,228.2,565.4,229.6Zm97.2,16.5a35.49,35.49,0,0,0,15.1,8.9c3.3.8,4.4,1.7,4.9,3.6a4.14,4.14,0,0,1-.9,4.1c-1.9,1.9-45.9,18.3-49.2,18.3a5,5,0,0,1-4.1-2.5c-1.5-2.3-1.5-2.7-.1-4.9,1.6-2.4,2.9-2.9,25.5-11.4l10.3-3.8-5.3-4c-5.5-4.1-7-7.3-4.8-10C656,242.1,659.4,242.8,662.6,246.1ZM88.8,261a31.45,31.45,0,0,1,15.7,11.9c2.8,4,3,4.9,3,12.9,0,7.5-.4,9.5-2.8,14.4-3.2,6.6-9,12-14.6,13.6s-14.9,1.5-20.7-.5c-13.5-4.5-20.6-13.3-20.6-25.4,0-14,8.4-25.9,20.5-29C73.8,257.8,82.1,258.7,88.8,261Zm65,19.2c1.9,1.9,1.5,4.3-2.3,14.7-1.9,5.3-4.1,12.2-5,15.3-1.3,4.7-2,5.9-4.1,6.4-2.8.7-6.4-1.8-6.4-4.6,0-2.4,8.8-28,10.6-30.8C148.2,278.8,151.9,278.3,153.8,280.2Zm439.6,1c.8,1.3,3.6,8.5,6.1,16,5.1,15,5.3,18.3,1,19.4-4,1-5.3-.2-7-6.3-.9-3.2-3.1-10.1-5-15.4s-3.5-10.5-3.5-11.5C585,278.8,590.9,277.4,593.4,281.2ZM675,314.5a11.48,11.48,0,0,1,4.6,15.4c-2.1,3.9-5.8,6.1-10.7,6.1-3.3,0-4.7-.6-7.5-3.4C651.9,323.1,663,308.3,675,314.5ZM63.9,329.1a14.7,14.7,0,0,1,5.3,6.7l2,4.8,3.2-3c3.2-3,15.9-9.6,18.5-9.6,2.3,0,5.1,3.1,5.1,5.7,0,3.3-2.6,5.5-12.7,10.7-10.6,5.5-13,7.7-13.9,13.2l-.6,4.1,3.8.6a70,70,0,0,0,10,.7c9.6,0,14,4.6,9.5,10.1l-1.8,2.3-23.4-1.3c-12.9-.7-24.9-1.7-26.7-2.2-4.3-1.4-4.7-3.5-3.4-20.1,1.1-15.3,2.3-18.6,8.2-22.5C51.4,326.3,59.1,326.2,63.9,329.1ZM138,337c1.8,1,1.9,2.1,1.3,18.3-.4,13.3-.9,17.6-2.1,18.9-1.9,2.2-4,2.3-6.4.1-2.2-1.9-2.3-7.6-.7-23.9C131.4,337.2,133.1,334.4,138,337Zm469.8,1.3c1.1,1.3,3.2,20.7,3.2,30,0,5.2-.3,5.9-2.5,6.9a5.41,5.41,0,0,1-4.8.1c-2.3-1.1-2.4-1.5-3-18.9-.4-13.1-.2-18.1.6-18.6C603.2,336.6,606.6,336.9,607.8,338.3Zm72.1,32.1c24.1,1.8,22.8.6,21.2,19.7-1.3,16.4-3.1,21.7-8.3,24.9-4,2.4-11.6,2.7-15.8.5a15.28,15.28,0,0,1-7.5-9.6l-.7-3-3.4,3.1c-5.8,5-18,10.5-21,9.3-2.3-.8-3.5-4.9-2.4-7.8.7-1.7,3.6-3.8,9.9-7,12-6,15.8-9.4,16.3-14.5.4-4.7.7-4.6-11.6-5.4-4.5-.4-9-1.3-10.3-2.1a5.26,5.26,0,0,1-1-7.7c1.8-2.3,3.6-2.7,10.2-2.2C658.8,368.9,669.8,369.7,679.9,370.4Zm-541.6,26c.8.8,2.2,5.7,3.1,10.8s2.4,12.2,3.3,15.7c1.9,7.9.9,11.1-3.6,11.1a5.84,5.84,0,0,1-3.9-1.3c-1.2-1.4-4.7-18.8-5.8-28.6-.6-5.6-.5-6.6,1.1-7.8C134.9,394.6,136.5,394.6,138.3,396.4Zm468.9.7c1.9,1,2,1.7,1.3,8.2-.8,8.8-5.2,26.7-7,28.6-1.6,1.7-6.3.7-7.2-1.5-.3-.8.9-8.8,2.6-17.7C600.6,396.3,601.8,394.2,607.2,397.1Zm-529,13.1c3.7,2.5,5.5,8.6,3.9,12.6-2.2,5.3-5.7,7.7-11.1,7.7s-8.9-2.4-11.1-7.7c-2.4-5.7,2.1-13.5,8.6-15C71.4,407.1,75.1,408,78.2,410.2Zm595.6,22.2c11.5,5.3,17.1,14.5,15.9,26.4-1,11.3-7,20.3-15.9,24.2-9.5,4.1-24.1,1.3-34.4-6.5-4.8-3.7-8.4-11.7-8.4-18.7,0-11.2,6.7-22.9,15.5-27C652.7,427.9,665.6,428.7,673.8,432.4Zm-520,21.8c.6.7,2.2,4.4,3.7,8.3a124.83,124.83,0,0,0,6.1,13.4c4.5,8.1,4.4,12.5-.2,12.9-4,.4-5.2-1.1-11.4-14.5-5.1-11.3-6.8-16.9-5.7-19.8C147.1,452.7,152.3,452.5,153.8,454.2ZM593,455.5c1.9,2.3.7,6.4-6.4,21.1-5.3,11-6.8,13.4-8.6,13.4-3,0-6-1.8-6-3.5s12.6-29.1,14.2-31.3C587.6,453.5,591.5,453.7,593,455.5Zm-480.4,9c3.2,4.9,1.1,6.6-14.8,12.8-7.9,3.1-15.8,6.2-17.6,6.8l-3.3,1.1,5.1,3.5c6.4,4.3,8.1,7.5,5.5,10.3s-3.7,2.5-9-2c-5.4-4.7-8.4-6.4-14.2-7.9-4.8-1.3-6.9-4.1-5.4-7,.7-1.2,6.4-4,15.3-7.5,7.9-3,18.4-7.1,23.3-9C108.4,461.3,110.4,461.2,112.6,464.5Zm538,35.9c8.8,4.9,16.5,9.4,17.3,10.1,1.7,1.6,1.8,6,.1,8-2.3,2.8-6.4,1.5-21.5-6.9-17.1-9.5-20.1-10.5-24.4-8-3.6,2.1-7.1,8.1-7.1,12.2,0,4.6,4,8,20.3,17.2,17.8,9.9,20.1,13.1,13.2,17.6-2.5,1.6-2.7,1.5-15.8-5.6-24.4-13.4-28.3-17.1-28.1-27.5.1-8.2,6.8-19.6,14.3-24.3,3-1.9,4.7-2.2,9.7-2C634.1,491.5,636.2,492.4,650.6,500.4Zm-464,11.9c2.9,3.8,7.5,9.3,10.3,12.2,5.1,5.4,6.3,8.9,3.9,11.3-3.5,3.5-8.8-.7-20.7-16.7-6.4-8.6-7.3-11.3-4.3-13C179,504.1,181.4,505.5,186.6,512.3Zm378.3-4.1c1.4,2.5,1.4,2.9-1.2,6.5-4.4,6.3-19.1,22.1-21.1,22.9-1.4.4-2.5,0-3.8-1.6-2.7-3.3-2.3-4.6,3-10.3,2.6-2.9,7.2-8.2,10.1-11.9C559.4,504.2,562,503,564.9,508.2ZM138.5,523.6a26.5,26.5,0,0,1,6.7,5.2c5.2,5.3,14.8,19.1,14.8,21.1,0,2.4-4.4,6.2-23,19.8-16,11.7-17.6,12.7-21.1,12.4-1.9-.1-13.5-15.2-16.8-21.8-4.4-8.7-1.5-20,7-27.8C117.6,522,128.7,518.9,138.5,523.6Zm455.6,15.2c5.2,3.4,35.9,31.7,36.5,33.5.9,3-1.5,7.6-4.4,8.4-1.5.3-12.1-.8-23.7-2.5s-21.1-2.9-21.2-2.8,5.6,5.5,12.7,12c13.7,12.3,15,14.5,11,18.1a4.52,4.52,0,0,1-4.3,1.1c-2.2-.5-31.9-26.1-37.4-32.2-4.8-5.3-1.6-11.4,6-11.4,2.3,0,12.5,1.3,22.7,2.9s18.5,2.9,18.6,2.8-3.5-3.4-7.9-7.4c-16.4-14.5-17.7-15.9-17.7-18.6,0-2.9,2.3-5.7,4.8-5.7A9.89,9.89,0,0,1,594.1,538.8ZM233.4,557.3c7.1,5.1,13.4,10,13.9,10.9,1.6,2.5-.7,6.8-3.6,6.8-4.1,0-28-17.2-29.2-21.1-.8-2.3,1.9-5.9,4.4-5.9C219.8,548,226.3,552.2,233.4,557.3Zm290.4-7.1c3.5,3.5-.1,7.2-21.9,22.6-3.8,2.8-5,3.1-7.1,2.3-2.7-1-4.1-3.3-3.2-5.5.3-.8,4.7-4.3,9.7-7.9s10.9-7.9,13.1-9.6C518.5,548.8,521.8,548.2,523.8,550.2ZM176,564c2.7,2.7,2.6,7.2-.6,28.1-1.4,9.3-2.4,17.5-2.2,18s5.4-4.6,11.6-11.5c11.8-13.1,14.1-14.6,17.6-11,3.1,3.1,1.9,6.1-6.1,15.2-4.3,4.8-11.5,13-16.1,18.2-8.8,10-11.3,11.7-15.6,10.6-4.9-1.2-5.1-3.4-1.8-27.2,1.7-12.1,3-22,2.8-22.1s-5.2,5.6-11.5,12.7-12.1,13.2-13.2,13.5c-2.8.9-6.9-2-6.9-4.9,0-1.3,1.2-3.9,2.8-5.8,5.4-6.9,30.4-34.7,31.5-35.2A7.37,7.37,0,0,1,176,564Zm103.2,19.6c4.5,2,10.7,4.5,13.7,5.5,6.6,2.3,8.1,3.5,8.1,6.4,0,3.2-2.4,4.9-6.4,4.2-5.9-.9-28.6-10.8-29.7-12.9-1.3-2.5,1.3-6.8,4-6.8C270,580,274.6,581.6,279.2,583.6ZM474,581.4a5.82,5.82,0,0,1,.8,3.8c-.2,1.8-2.3,3.3-9.4,6.8a173,173,0,0,1-16.2,6.9c-6.9,2.4-7.2,2.4-9.2.6-2.3-2.1-2.6-5.7-.7-7.4.8-.6,6.7-2.9,13.2-5.2s13-4.7,14.4-5.4C470.3,579.7,472.5,579.7,474,581.4Zm77.8,1.3c2.1,1.8,26.1,34.4,28.2,38.4a6.44,6.44,0,0,1,.6,4.3c-.6,2.3-14.2,12.8-21.7,16.7-9.1,4.7-20.1,2-28.3-7.2-12.5-13.9-14-28.4-4-38.5,4-4,20.3-15.4,22-15.4A7.67,7.67,0,0,1,551.8,582.7ZM345.3,600.9c12.6,1.7,14.6,2.5,14.7,5.8a6.9,6.9,0,0,1-2.1,3.4c-2.4,2.4-5.9,2.3-24.8-.7-10.5-1.6-12.1-2.4-12.1-6.3,0-4.2,1.8-5.4,7-4.6C330.5,598.9,338.3,599.9,345.3,600.9Zm71.5-1.3c2.7,1.8,2.8,3.5.5,6.3-1.8,2.1-11,4-27.4,5.6-7.5.8-9.9-.5-9.9-5.6,0-3.4-.4-3.3,17.5-5.5,7.2-.9,13.2-1.8,13.4-2C411.8,597.5,414.7,598.1,416.8,599.6Zm-180.7,9.5c7.3,3.9,13.6,10.7,14.5,15.7,1,5.5-1,11.4-8.8,25.7C232.5,667.6,230.7,670,227,670a5.55,5.55,0,0,1-5.3-7.3c.4-1.2,4.3-8.7,8.6-16.4,8.6-15.6,9.9-19.8,7.3-23.8a15.3,15.3,0,0,0-11.7-6.5c-5,0-8.1,3.7-17.5,20.9-8.4,15.2-10.4,17.3-14.9,15.3-4.9-2.2-4.3-5.1,4.1-20.8,8.6-15.8,14.8-23.8,19.7-25.4C222.5,604.5,229.5,605.6,236.1,609.1Zm232.7,18.7c.7.5,4.2,8.4,7.7,17.7s6.6,17,6.8,17.2,1.4-1.1,2.5-2.9c3.5-5.6,6.8-8.1,9.6-7.4,3.5.9,4.3,4.2,1.7,7.5-6.4,7.9-8.3,11-9.7,15.9-1.7,5.7-3,6.8-6.8,5.8-2-.5-3.5-3.5-10.1-20.8-11.4-29.9-11-28.4-9.1-31.3A5.48,5.48,0,0,1,468.8,627.8ZM294.2,633A25.32,25.32,0,0,1,313,658c0,26.7-22.3,40.7-44.1,27.7-7.7-4.6-11.3-10.8-11.7-20.3-.8-15.8,7.5-29.2,20.6-33.5C280.9,630.9,288.9,631.4,294.2,633Zm42,10.7c.8,1,3.9,6.3,6.9,11.7,5.7,10.5,7.2,12,13.1,13,3.6.7,3.7.6,4.2-2.6.3-1.8.7-6.6.9-10.6.5-8,2.3-11.2,6.3-11.2,5.8,0,6.1,2.5,4.4,32-1.3,20.9-2.1,24.7-5.5,25.6-4.5,1.1-29.2-1.3-33.3-3.3-5.3-2.6-8.2-7.4-8.2-13.7,0-7,2.7-11.2,9-13.9l4.9-2.1-3.3-3.6c-3.4-3.7-8-12.5-9.1-17.1C325.3,642.9,332.7,639.7,336.2,643.7Zm85.1,14.7c4.5,1.9,6.8,4.8,7.4,9.4a11.07,11.07,0,0,1-6.3,11.7c-4,1.9-6.7,1.9-10.3.1-8.4-4.4-8.2-16.8.4-20.7C417.3,656.7,417.3,656.7,421.3,658.4Z" transform="translate(-0.59 -1.16)"/><path class="cls-2" d="M384.7,55.1c-.2,4.1-.4,7.5-.2,7.7s4.3.3,9.2.5c7.8.2,9.4-.1,11.2-1.7,1.6-1.5,2.1-2.9,1.9-5.4-.4-5.1-3.6-7-13.4-7.8l-8.1-.6Z" transform="translate(-0.59 -1.16)"/><path class="cls-2" d="M457,60.8c-8.7,1.5-16.1,15.8-14,27.3,1.4,7.6,9.5,13,17.4,11.5,10.7-2,18.6-22.4,12.4-31.6C468.8,62.2,463.4,59.7,457,60.8Z" transform="translate(-0.59 -1.16)"/><path class="cls-2" d="M179.5,111.5a52.32,52.32,0,0,0-7.9,4.9l-2.8,2.3,10.8,14.6c6,8.1,11.3,14.6,11.7,14.7,1.7,0,11.4-8.1,12.5-10.5,2.5-5.5.8-12.4-4.9-19.6C192.2,109.5,186.9,107.7,179.5,111.5Z" transform="translate(-0.59 -1.16)"/><path class="cls-2" d="M611.5,183.6c-7.1,5.2-13.9,10-14.9,10.8-1.9,1.2-1.8,1.5,2.8,7.4,2.6,3.4,5.6,6.6,6.6,7.2,5.6,3,15.5-.4,23.1-8,5.3-5.3,6.6-9.5,4.4-14.6-1.7-4.1-7.3-12.4-8.3-12.3C624.8,174.1,618.7,178.4,611.5,183.6Z" transform="translate(-0.59 -1.16)"/><path class="cls-2" d="M67.5,272a18.28,18.28,0,0,0-4.9,3.9c-2.4,2.5-3.1,4.2-3.4,9-.4,5.6-.3,6,3.3,9.9,6.5,7.3,19.8,10.4,27.4,6.4,4.8-2.4,7.3-6.2,7.8-11.9.4-3.9,0-5.5-1.9-8.3a23.89,23.89,0,0,0-12.7-9C78.8,270.8,70.3,270.8,67.5,272Z" transform="translate(-0.59 -1.16)"/><path class="cls-2" d="M51,340.8c-1.9,1.5-2.3,3.1-2.9,10.9l-.6,9.2,7,.3a45.69,45.69,0,0,0,7.8,0c.4-.2.7-3.9.7-8.3,0-7.7-1-11.5-3.4-13.1C57.6,338.4,53.3,339,51,340.8Z" transform="translate(-0.59 -1.16)"/><path class="cls-2" d="M676.9,388.1c-.4,13.9.8,16.9,6.6,16.9,5.4,0,7.5-3.3,8.2-13.4l.6-8.6h-4.5a54.8,54.8,0,0,1-7.7-.6l-3.1-.7Z" transform="translate(-0.59 -1.16)"/><path class="cls-2" d="M647.5,443c-5.9,3.9-8.3,12.7-5,19,3,5.9,13.2,11,21.8,11,8.9,0,15.7-6.4,15.7-14.9,0-10-9.7-17.1-23.4-17.1C652.2,441,649.7,441.6,647.5,443Z" transform="translate(-0.59 -1.16)"/><path class="cls-2" d="M123.4,535c-5.5,2.8-12.1,8.5-14,12.3-2.3,4.4-1.3,9.8,3.2,16.2,2,3,4,5.5,4.3,5.5s6.5-4.3,13.6-9.6,13.8-10.2,14.9-10.9c1.7-1.3,1.7-1.5-1.3-5.8C137.4,533,131.8,530.9,123.4,535Z" transform="translate(-0.59 -1.16)"/><path class="cls-2" d="M540.1,598c-6.9,5.1-8.3,7.1-8.3,12.5,0,5.7,4.2,13.4,10.1,18.6,3.8,3.4,5,3.9,9.1,3.9,3.8,0,5.8-.7,10.9-4.1,3.9-2.7,5.8-4.6,5.3-5.3s-5.5-7.5-11.1-15.4S545.7,594,545.6,594,543,595.8,540.1,598Z" transform="translate(-0.59 -1.16)"/><path class="cls-2" d="M278,644.2c-6.9,4.7-11.3,19.9-8,27.8,2.6,6.3,10.8,9.9,17.9,8,9.8-2.6,16.4-20.2,11.5-30.6C296,642.2,285,639.5,278,644.2Z" transform="translate(-0.59 -1.16)"/><path class="cls-2" d="M339,679a7.82,7.82,0,0,0-.7,9.4c1.6,2.1,7.4,3.5,15,3.6H359v-4.4a53,53,0,0,1,.6-7.5l.7-3.1h-9.7C342.3,677,340.7,677.3,339,679Z" transform="translate(-0.59 -1.16)"/></svg>