<svg id="Capa_1" data-name="Capa 1" xmlns="http://www.w3.org/2000/svg" viewBox="0 0 738.41 738.84"><defs><style>.cls-1{fill:#fff;stroke:#000;stroke-miterlimit:10;}.cls-2{fill:#8c5383;}</style></defs><title>user-round4</title><circle class="cls-1" cx="372.39" cy="372" r="344.8"/><path class="cls-2" d="M348.71.94c-76.5,4-149.2,31.8-210.8,80.6-14.2,11.2-45.6,42.6-56.8,56.8-49.6,62.6-76.6,134-80.6,213.3-4.7,90.2,23.5,177.6,80,248.9,13.1,16.4,41.8,45.1,58.2,58.2a368.17,368.17,0,0,0,192.1,78.6c19.2,2,58,2,77.2,0,84.1-8.9,159.6-44.5,220.2-103.9,61.9-60.6,99.6-138.8,108.7-225,2-19.2,2-58,0-77.2a368.17,368.17,0,0,0-78.6-192.1c-13.1-16.4-41.8-45.1-58.2-58.2a369.06,369.06,0,0,0-182.7-77.6C407.11,2,371-.36,365.91,0,364.81,0,357,.54,348.71.94Zm52.6,38c8.4,1,12.4,3.1,15.2,7.5,2.4,3.9,2.5,11.3.3,16-1.7,3.4-7.5,7.4-10.9,7.4-1.3,0-1,.8,1.3,3.7,4.3,5.5,9.2,15.8,9.2,19.2,0,5.1-6,6.9-9.7,2.8-1.2-1.2-4.1-6.3-6.7-11.3-5.2-10.5-8.1-13.4-13.7-13.4h-3.9l-.1,5.2c-.1,9.2-1.4,16-3.4,17.4-2.9,2.1-6.3,1.7-8.1-1.1-1.5-2.2-1.4-4.3.5-27.2,2.4-29.9,1.8-28.8,14.6-27.8C390.31,37.64,397.21,38.34,401.31,38.94Zm61.3,11c16.1,3.4,24.6,13.8,23.6,28.7-1,13.6-9.7,26.2-20.3,29.2-8.8,2.5-20.4-.5-27.9-7-9.1-8.1-10.8-21.9-4.1-35.5,4.8-9.9,11.2-14.5,22.7-16.4C457,48.94,459.71,49.34,462.61,49.94Zm-202.8,7.2c1,.7,4.4,7.8,7.6,15.7l5.7,14.5,4.2-.3c3.6-.3,4.2-.1,5.3,2.3,1.2,2.6,1,3-2.1,5.6l-3.4,2.8,1.7,4.1c1.9,4.8,1.3,7.8-1.7,8.9-3.2,1.2-5.6-.5-7.9-5.6-1.5-3.4-2.3-4.3-3.6-3.8-19.7,8-22,8.3-24.7,4.1-1.4-2.1-1-4.1,4.5-24.2,4.5-16.6,6.4-22.3,8.1-23.7C256,55.54,257.41,55.44,259.81,57.14Zm65.1,3.9c6.4,5,6.5,13.1.4,18.3-9.1,7.6-22.5-3-17.3-13.7C311.11,58.94,319.41,56.74,324.91,61Zm194.3,10.4c3.8,2.6,2.8,6.2-6.3,22-9.3,16.3-10.3,19.1-8.5,23.5,1.5,3.6,8.5,7.9,12.7,7.9,4.7,0,8-3.9,17.4-20.4,9-15.9,11-17.9,15.4-15.6,4.9,2.6,4.3,4.8-5.5,22.1-5.1,8.8-10.7,17.5-12.5,19.3-7,7.1-17,6.9-28.3-.5-12.5-8.1-14.5-16.4-7.6-30.2,5.1-10.1,14.7-26.2,16.6-28C515.11,69.44,516.31,69.44,519.21,71.44Zm-325.8,27c4.1,1.2,6.7,2.9,11,7.2,11.3,11.3,14.6,24.4,8.7,34.4-3.1,5.3-21.5,19.8-25.2,19.8-2.8,0-3.8-1.2-18.3-20.6-16-21.5-16.1-21.7-11.8-25.7,4.8-4.4,18.8-14,22.4-15.3C185.11,96.54,187,96.54,193.41,98.44Zm386.5,12.9a7.81,7.81,0,0,1,2.5,4.7c-.1,1.3-1.6,11.6-3.4,23s-3.2,20.8-3.1,20.8,5-5.4,11-12.1,11.8-12.7,13.1-13.6a5.2,5.2,0,0,1,7.9,5.8c-.8,2.5-31.9,36.9-34.9,38.6s-4.4,1.6-7.1-1.2c-3.2-3.1-3.2-4.6.5-27.8,1.7-10.4,2.9-19.1,2.7-19.3s-5.4,5.3-11.5,12.1c-9.3,10.4-11.8,12.5-14.1,12.5-3.9,0-6.8-3.3-5.5-6.5.9-2.5,30.4-35.7,33.9-38.1C574.81,108.24,577.21,108.54,579.91,111.34Zm-192.3,19.2c2.2,2,2.3,4.1.1,6.5-1.4,1.6-3.4,1.8-18,1.8-15,0-16.5-.2-18.3-2-2.4-2.4-2.5-3.8-.3-6.2,1.4-1.6,3.4-1.8,18.1-1.8C383.21,128.84,386,129.14,387.61,130.54Zm-58.8,3.9c3.8,3.7.3,7.7-7.9,9.3-3.3.6-9.9,2.3-14.7,3.7-11.7,3.6-16.8,2.1-14.1-3.9,1.1-2.4,11.7-6.4,24.3-9.1C325.11,132.54,327,132.54,328.81,134.44Zm104,3c6.6,1.9,12.6,4,13.3,4.6,1.6,1.3,1.7,5,.1,6.6s-4,1.5-13.2-1.2c-4.4-1.4-11-3-14.6-3.7-7.7-1.4-9-2.3-9-5.8C409.41,131.74,412.81,131.74,432.81,137.44Zm-276.5,14c10.5,9.1,19.3,17.5,19.7,18.6.9,2.8-1.3,6.4-4.7,7.8-2.3,1-6.7.7-23.9-1.7-11.5-1.6-21-2.8-21-2.7s5.5,5.1,12.3,11,12.6,11.3,13,12.1c2.4,4-2.5,9.4-6.8,7.5-3.3-1.5-36.8-31.1-38.3-33.9-1.8-3.4.1-8.1,3.6-9,1.3-.3,12.3.7,24.4,2.4,13.6,1.8,21.4,2.5,20.6,1.8s-6.8-6-13.5-11.9c-10.1-8.8-12.3-11.2-12.3-13.5,0-3.4,1.7-5.1,5.2-5.1C136.71,134.84,141.61,138.54,156.31,151.44Zm116.9,3.7c.5,3.9-1,5.3-9.3,9.1a126.83,126.83,0,0,0-12.8,6.9c-7.8,5-12.7,4.7-12.7-.8,0-3.2,3.4-5.9,16.1-12.5,8.6-4.5,12.3-5.9,14.9-5.8C272.41,152.34,272.91,152.74,273.21,155.14Zm207.5.8c18.6,9.3,22.7,13,19,17.1-2.2,2.4-5.8,2.3-9.6-.5-1.8-1.2-7.9-4.7-13.7-7.7-8.2-4.3-10.6-6-10.8-7.8C464.71,150.54,469.21,150.24,480.71,155.94Zm148.4,6.1c1.1,1.3,4.8,6.2,8.1,11.1,9.4,13.6,10.1,20.2,3.3,30.9-5,7.9-17,15.3-26.3,16.4-4.5.5-6.1.1-10.8-2.3-4.5-2.3-6.9-4.6-12.7-12.3-9.4-12.4-10-14.2-6.5-18,4.8-5.2,37.5-27.9,40.3-28A7.37,7.37,0,0,1,629.11,162Zm-407.3,22.4c3.1,3,1.9,6-4.1,11-3.2,2.7-8.8,7.7-12.5,11.1s-7.5,6.3-8.5,6.3c-2.4,0-4.7-4.1-3.9-6.8,1-3,23.2-23.2,25.5-23.2A5.41,5.41,0,0,1,221.81,184.44Zm312.8,10.1c11.7,11.6,13.4,14.3,10.6,17.1s-5.7,1.1-17.7-10.1c-12.4-11.4-13.6-13.4-10.4-16.9C520.11,181.24,522.41,182.54,534.61,194.54Zm-426,4.5c8.3,4.6,16.8,10,18.9,12,6.9,6.7,7.4,15.3,1.7,26-6.8,12.8-15.6,16.8-27.3,12.5-4-1.5-29.6-15.5-31.7-17.5a5.62,5.62,0,0,1,.7-8.8c3.1-2,3.7-1.8,20.7,7.6,16.3,8.9,19.3,9.8,23.7,7.5,3.5-1.8,7.1-8,7.1-12.4s-4.2-7.9-20.2-16.5c-7.9-4.3-14.9-8.5-15.5-9.4a5.73,5.73,0,0,1,4.4-9.2C92.41,190.84,100.31,194.54,108.61,199Zm73.7,29.9c1.4,2.5,1.1,3.1-8.3,17.2-5.3,8.1-10.3,14.7-11,14.7a7.61,7.61,0,0,1-3.7-1.9c-2.8-2.2-2.6-2.6,5.7-16.9C174.41,226.14,178.81,222.74,182.31,228.94Zm382.5-.5c2.5,2.7,13.4,20.5,15.7,25.8,1.2,2.6,1.1,3-1,4.7-4.1,3.3-5.6,2.4-10.5-5.9-2.5-4.2-6.6-10.6-9.1-14.1s-4.5-7.1-4.5-7.8c0-1.8,3.6-5.3,5.5-5.3C561.71,225.84,563.41,227,564.81,228.44Zm95.9,22.4c14.7,4.3,20.7,6.5,22,8.1,4.1,5.1,1.5,7.3-16.5,13.9l-14.6,5.3.9,2.9c1.1,3.8.2,5.7-2.9,6.5-2.5.6-5.3-1.6-6.4-4.9-.3-.8-1.6-.7-4.6.5-5.6,2.3-6.9,2.1-8.8-.8-2.3-3.5-1-6,4.6-8.4l4.9-2.1-3.1-8.3c-4-10.6-4.7-15.6-2.2-17.4C636.81,244,639.21,244.44,660.71,250.84Zm-572.5,9a31.45,31.45,0,0,1,15.7,11.9c2.8,4,3,4.9,3,12.9,0,7.5-.4,9.5-2.8,14.4-3.2,6.6-9,12-14.6,13.6s-14.9,1.5-20.7-.5c-13.5-4.5-20.6-13.3-20.6-25.4,0-14,8.4-25.9,20.5-29C73.21,256.64,81.51,257.54,88.21,259.84Zm65,19.2c1.9,1.9,1.5,4.3-2.3,14.7-1.9,5.3-4.1,12.2-5,15.3-1.3,4.7-2,5.9-4.1,6.4-2.8.7-6.4-1.8-6.4-4.6,0-2.4,8.8-28,10.6-30.8C147.61,277.64,151.31,277.14,153.21,279Zm439.6,1c.8,1.3,3.6,8.5,6.1,16,5.1,15,5.3,18.3,1,19.4-4,1-5.3-.2-7-6.3-.9-3.2-3.1-10.1-5-15.4s-3.5-10.5-3.5-11.5C584.41,277.64,590.31,276.24,592.81,280Zm81.6,33.3a11.48,11.48,0,0,1,4.6,15.4c-2.1,3.9-5.8,6.1-10.7,6.1-3.3,0-4.7-.6-7.5-3.4C651.31,321.94,662.41,307.14,674.41,313.34Zm-611.1,14.6a14.7,14.7,0,0,1,5.3,6.7l2,4.8,3.2-3c3.2-3,15.9-9.6,18.5-9.6,2.3,0,5.1,3.1,5.1,5.7,0,3.3-2.6,5.5-12.7,10.7-10.6,5.5-13,7.7-13.9,13.2l-.6,4.1,3.8.6a70,70,0,0,0,10,.7c9.6,0,14,4.6,9.5,10.1l-1.8,2.3-23.4-1.3c-12.9-.7-24.9-1.7-26.7-2.2-4.3-1.4-4.7-3.5-3.4-20.1,1.1-15.3,2.3-18.6,8.2-22.5C50.81,325.14,58.51,325,63.31,327.94Zm74.1,7.9c1.8,1,1.9,2.1,1.3,18.3-.4,13.3-.9,17.6-2.1,18.9-1.9,2.2-4,2.3-6.4.1-2.2-1.9-2.3-7.6-.7-23.9C130.81,336,132.51,333.24,137.41,335.84Zm469.8,1.3c1.1,1.3,3.2,20.7,3.2,30,0,5.2-.3,5.9-2.5,6.9a5.41,5.41,0,0,1-4.8.1c-2.3-1.1-2.4-1.5-3-18.9-.4-13.1-.2-18.1.6-18.6C602.61,335.44,606,335.74,607.21,337.14Zm72.1,32.1c24.1,1.8,22.8.6,21.2,19.7-1.3,16.4-3.1,21.7-8.3,24.9-4,2.4-11.6,2.7-15.8.5a15.28,15.28,0,0,1-7.5-9.6l-.7-3-3.4,3.1c-5.8,5-18,10.5-21,9.3-2.3-.8-3.5-4.9-2.4-7.8.7-1.7,3.6-3.8,9.9-7,12-6,15.8-9.4,16.3-14.5.4-4.7.7-4.6-11.6-5.4-4.5-.4-9-1.3-10.3-2.1a5.26,5.26,0,0,1-1-7.7c1.8-2.3,3.6-2.7,10.2-2.2C658.21,367.74,669.21,368.54,679.31,369.24Zm-541.6,26c.8.8,2.2,5.7,3.1,10.8s2.4,12.2,3.3,15.7c1.9,7.9.9,11.1-3.6,11.1a5.84,5.84,0,0,1-3.9-1.3c-1.2-1.4-4.7-18.8-5.8-28.6-.6-5.6-.5-6.6,1.1-7.8C134.31,393.44,135.91,393.44,137.71,395.24Zm468.9.7c1.9,1,2,1.7,1.3,8.2-.8,8.8-5.2,26.7-7,28.6-1.6,1.7-6.3.7-7.2-1.5-.3-.8.9-8.8,2.6-17.7C600,395.14,601.21,393,606.61,395.94ZM77.61,409c3.7,2.5,5.5,8.6,3.9,12.6-2.2,5.3-5.7,7.7-11.1,7.7s-8.9-2.4-11.1-7.7c-2.4-5.7,2.1-13.5,8.6-15C70.81,405.94,74.51,406.84,77.61,409Zm595.6,22.2c11.5,5.3,17.1,14.5,15.9,26.4-1,11.3-7,20.3-15.9,24.2-9.5,4.1-24.1,1.3-34.4-6.5-4.8-3.7-8.4-11.7-8.4-18.7,0-11.2,6.7-22.9,15.5-27C652.11,426.74,665,427.54,673.21,431.24Zm-520,21.8c.6.7,2.2,4.4,3.7,8.3a124.83,124.83,0,0,0,6.1,13.4c4.5,8.1,4.4,12.5-.2,12.9-4,.4-5.2-1.1-11.4-14.5-5.1-11.3-6.8-16.9-5.7-19.8C146.51,451.54,151.71,451.34,153.21,453Zm439.2,1.3c1.9,2.3.7,6.4-6.4,21.1-5.3,11-6.8,13.4-8.6,13.4-3,0-6-1.8-6-3.5s12.6-29.1,14.2-31.3C587,452.34,590.91,452.54,592.41,454.34Zm-496.8,2.5c.9,2.1,1.8,2.8,2.8,2.4,3.8-1.7,8.8-2.7,10.3-2.1.9.3,1.9,1.8,2.3,3.2.8,3.3-1.5,5.9-6.7,7.7l-3.7,1.3,4,10.3c4.4,11.3,4.4,14.5.3,16.4-2.1.9-6,.1-24.2-5.1-22-6.2-24.3-7.3-24.3-11.6,0-3.3,2.4-4.8,16-10,16.8-6.4,16.1-6,15-9.1-1.4-3.6.3-6.4,4-6.4C93.61,453.84,94.51,454.54,95.61,456.84ZM650,499.24c8.8,4.9,16.5,9.4,17.3,10.1,1.7,1.6,1.8,6,.1,8-2.3,2.8-6.4,1.5-21.5-6.9-17.1-9.5-20.1-10.5-24.4-8-3.6,2.1-7.1,8.1-7.1,12.2,0,4.6,4,8,20.3,17.2,17.8,9.9,20.1,13.1,13.2,17.6-2.5,1.6-2.7,1.5-15.8-5.6-24.4-13.4-28.3-17.1-28.1-27.5.1-8.2,6.8-19.6,14.3-24.3,3-1.9,4.7-2.2,9.7-2C633.51,490.34,635.61,491.24,650,499.24Zm-464,11.9c2.9,3.8,7.5,9.3,10.3,12.2,5.1,5.4,6.3,8.9,3.9,11.3-3.5,3.5-8.8-.7-20.7-16.7-6.4-8.6-7.3-11.3-4.3-13C178.41,502.94,180.81,504.34,186,511.14Zm378.3-4.1c1.4,2.5,1.4,2.9-1.2,6.5-4.4,6.3-19.1,22.1-21.1,22.9-1.4.4-2.5,0-3.8-1.6-2.7-3.3-2.3-4.6,3-10.3,2.6-2.9,7.2-8.2,10.1-11.9C558.81,503,561.41,501.84,564.31,507Zm-426.4,15.4a26.5,26.5,0,0,1,6.7,5.2c5.2,5.3,14.8,19.1,14.8,21.1,0,2.4-4.4,6.2-23,19.8-16,11.7-17.6,12.7-21.1,12.4-1.9-.1-13.5-15.2-16.8-21.8-4.4-8.7-1.5-20,7-27.8C117,520.84,128.11,517.74,137.91,522.44Zm455.6,15.2c5.2,3.4,35.9,31.7,36.5,33.5.9,3-1.5,7.6-4.4,8.4-1.5.3-12.1-.8-23.7-2.5s-21.1-2.9-21.2-2.8,5.6,5.5,12.7,12c13.7,12.3,15,14.5,11,18.1a4.52,4.52,0,0,1-4.3,1.1c-2.2-.5-31.9-26.1-37.4-32.2-4.8-5.3-1.6-11.4,6-11.4,2.3,0,12.5,1.3,22.7,2.9s18.5,2.9,18.6,2.8-3.5-3.4-7.9-7.4c-16.4-14.5-17.7-15.9-17.7-18.6,0-2.9,2.3-5.7,4.8-5.7A9.89,9.89,0,0,1,593.51,537.64Zm-360.7,18.5c7.1,5.1,13.4,10,13.9,10.9,1.6,2.5-.7,6.8-3.6,6.8-4.1,0-28-17.2-29.2-21.1-.8-2.3,1.9-5.9,4.4-5.9C219.21,546.84,225.71,551,232.81,556.14Zm290.4-7.1c3.5,3.5-.1,7.2-21.9,22.6-3.8,2.8-5,3.1-7.1,2.3-2.7-1-4.1-3.3-3.2-5.5.3-.8,4.7-4.3,9.7-7.9s10.9-7.9,13.1-9.6C517.91,547.64,521.21,547,523.21,549Zm-347.8,13.8c2.7,2.7,2.6,7.2-.6,28.1-1.4,9.3-2.4,17.5-2.2,18s5.4-4.6,11.6-11.5c11.8-13.1,14.1-14.6,17.6-11,3.1,3.1,1.9,6.1-6.1,15.2-4.3,4.8-11.5,13-16.1,18.2-8.8,10-11.3,11.7-15.6,10.6-4.9-1.2-5.1-3.4-1.8-27.2,1.7-12.1,3-22,2.8-22.1s-5.2,5.6-11.5,12.7-12.1,13.2-13.2,13.5c-2.8.9-6.9-2-6.9-4.9,0-1.3,1.2-3.9,2.8-5.8,5.4-6.9,30.4-34.7,31.5-35.2A7.37,7.37,0,0,1,175.41,562.84Zm103.2,19.6c4.5,2,10.7,4.5,13.7,5.5,6.6,2.3,8.1,3.5,8.1,6.4,0,3.2-2.4,4.9-6.4,4.2-5.9-.9-28.6-10.8-29.7-12.9-1.3-2.5,1.3-6.8,4-6.8C269.41,578.84,274,580.44,278.61,582.44Zm194.8-2.2a5.82,5.82,0,0,1,.8,3.8c-.2,1.8-2.3,3.3-9.4,6.8a173,173,0,0,1-16.2,6.9c-6.9,2.4-7.2,2.4-9.2.6-2.3-2.1-2.6-5.7-.7-7.4.8-.6,6.7-2.9,13.2-5.2s13-4.7,14.4-5.4C469.71,578.54,471.91,578.54,473.41,580.24Zm77.8,1.3c2.1,1.8,26.1,34.4,28.2,38.4a6.44,6.44,0,0,1,.6,4.3c-.6,2.3-14.2,12.8-21.7,16.7-9.1,4.7-20.1,2-28.3-7.2-12.5-13.9-14-28.4-4-38.5,4-4,20.3-15.4,22-15.4A7.67,7.67,0,0,1,551.21,581.54Zm-206.5,18.2c12.6,1.7,14.6,2.5,14.7,5.8a6.9,6.9,0,0,1-2.1,3.4c-2.4,2.4-5.9,2.3-24.8-.7-10.5-1.6-12.1-2.4-12.1-6.3,0-4.2,1.8-5.4,7-4.6C329.91,597.74,337.71,598.74,344.71,599.74Zm71.5-1.3c2.7,1.8,2.8,3.5.5,6.3-1.8,2.1-11,4-27.4,5.6-7.5.8-9.9-.5-9.9-5.6,0-3.4-.4-3.3,17.5-5.5,7.2-.9,13.2-1.8,13.4-2C411.21,596.34,414.11,596.94,416.21,598.44Zm-180.7,9.5c7.3,3.9,13.6,10.7,14.5,15.7,1,5.5-1,11.4-8.8,25.7-9.3,17.1-11.1,19.5-14.8,19.5a5.55,5.55,0,0,1-5.3-7.3c.4-1.2,4.3-8.7,8.6-16.4,8.6-15.6,9.9-19.8,7.3-23.8a15.3,15.3,0,0,0-11.7-6.5c-5,0-8.1,3.7-17.5,20.9-8.4,15.2-10.4,17.3-14.9,15.3-4.9-2.2-4.3-5.1,4.1-20.8,8.6-15.8,14.8-23.8,19.7-25.4C221.91,603.34,228.91,604.44,235.51,607.94Zm230.2,24.9c1.1,2.7,2.4,5,2.8,5s4.8-1.6,9.8-3.5c10.9-4.2,13.5-4.4,15.7-.9,1.7,2.5,1.5,3.2-4.2,23.6-3.2,11.6-6.7,22.2-7.7,23.5-2.2,2.7-5.8,3-8,.5-.9-.9-4-8-6.9-15.7l-5.3-14-4.1.3c-3.4.3-4.2,0-5.1-2-1.3-3-.1-5.5,3.3-6.8,2.4-.9,2.4-1,.9-4.6-2.8-6.8-1.5-10.4,3.8-10.4C463.21,627.84,463.81,628.44,465.71,632.84Zm-172.1-1a25.32,25.32,0,0,1,18.8,25c0,26.7-22.3,40.7-44.1,27.7-7.7-4.6-11.3-10.8-11.7-20.3-.8-15.8,7.5-29.2,20.6-33.5C280.31,629.74,288.31,630.24,293.61,631.84Zm42,10.7c.8,1,3.9,6.3,6.9,11.7,5.7,10.5,7.2,12,13.1,13,3.6.7,3.7.6,4.2-2.6.3-1.8.7-6.6.9-10.6.5-8,2.3-11.2,6.3-11.2,5.8,0,6.1,2.5,4.4,32-1.3,20.9-2.1,24.7-5.5,25.6-4.5,1.1-29.2-1.3-33.3-3.3-5.3-2.6-8.2-7.4-8.2-13.7,0-7,2.7-11.2,9-13.9l4.9-2.1-3.3-3.6c-3.4-3.7-8-12.5-9.1-17.1C324.71,641.74,332.11,638.54,335.61,642.54Zm85.1,14.7c4.5,1.9,6.8,4.8,7.4,9.4a11.07,11.07,0,0,1-6.3,11.7c-4,1.9-6.7,1.9-10.3.1-8.4-4.4-8.2-16.8.4-20.7C416.71,655.54,416.71,655.54,420.71,657.24Z" transform="translate(0 0)"/><path class="cls-2" d="M384.11,53.94c-.2,4.1-.4,7.5-.2,7.7s4.3.3,9.2.5c7.8.2,9.4-.1,11.2-1.7,1.6-1.5,2.1-2.9,1.9-5.4-.4-5.1-3.6-7-13.4-7.8l-8.1-.6Z" transform="translate(0 0)"/><path class="cls-2" d="M456.41,59.64c-8.7,1.5-16.1,15.8-14,27.3,1.4,7.6,9.5,13,17.4,11.5,10.7-2,18.6-22.4,12.4-31.6C468.21,61,462.81,58.54,456.41,59.64Z" transform="translate(0 0)"/><path class="cls-2" d="M252.61,85.54c-1.7,6.5-3,11.8-2.9,11.9s12.9-4.7,13.6-5.2c.5-.5-6-17.3-6.9-17.9C256,74.14,254.31,79.14,252.61,85.54Z" transform="translate(0 0)"/><path class="cls-2" d="M178.91,110.34a52.32,52.32,0,0,0-7.9,4.9l-2.8,2.3,10.8,14.6c6,8.1,11.3,14.6,11.7,14.7,1.7,0,11.4-8.1,12.5-10.5,2.5-5.5.8-12.4-4.9-19.6C191.61,108.34,186.31,106.54,178.91,110.34Z" transform="translate(0 0)"/><path class="cls-2" d="M610.91,182.44c-7.1,5.2-13.9,10-14.9,10.8-1.9,1.2-1.8,1.5,2.8,7.4,2.6,3.4,5.6,6.6,6.6,7.2,5.6,3,15.5-.4,23.1-8,5.3-5.3,6.6-9.5,4.4-14.6-1.7-4.1-7.3-12.4-8.3-12.3C624.21,172.94,618.11,177.24,610.91,182.44Z" transform="translate(0 0)"/><path class="cls-2" d="M645.11,261.24c1.5,3.9,2.7,7.2,2.8,7.3s4.5-1.4,9.9-3.4,9.5-3.8,9-4-6.2-1.8-12.6-3.6l-11.6-3.4Z" transform="translate(0 0)"/><path class="cls-2" d="M66.91,270.84a18.28,18.28,0,0,0-4.9,3.9c-2.4,2.5-3.1,4.2-3.4,9-.4,5.6-.3,6,3.3,9.9,6.5,7.3,19.8,10.4,27.4,6.4,4.8-2.4,7.3-6.2,7.8-11.9.4-3.9,0-5.5-1.9-8.3a23.89,23.89,0,0,0-12.7-9C78.21,269.64,69.71,269.64,66.91,270.84Z" transform="translate(0 0)"/><path class="cls-2" d="M50.41,339.64c-1.9,1.5-2.3,3.1-2.9,10.9l-.6,9.2,7,.3a45.69,45.69,0,0,0,7.8,0c.4-.2.7-3.9.7-8.3,0-7.7-1-11.5-3.4-13.1C57,337.24,52.71,337.84,50.41,339.64Z" transform="translate(0 0)"/><path class="cls-2" d="M676.31,386.94c-.4,13.9.8,16.9,6.6,16.9,5.4,0,7.5-3.3,8.2-13.4l.6-8.6h-4.5a54.8,54.8,0,0,1-7.7-.6l-3.1-.7Z" transform="translate(0 0)"/><path class="cls-2" d="M646.91,441.84c-5.9,3.9-8.3,12.7-5,19,3,5.9,13.2,11,21.8,11,8.9,0,15.7-6.4,15.7-14.9,0-10-9.7-17.1-23.4-17.1C651.61,439.84,649.11,440.44,646.91,441.84Z" transform="translate(0 0)"/><path class="cls-2" d="M81.71,476.64l-9.2,3.8,12,3.2c6.7,1.8,12.3,3.1,12.5,2.9.5-.5-4.8-13.7-5.5-13.6C91.21,472.94,86.81,474.64,81.71,476.64Z" transform="translate(0 0)"/><path class="cls-2" d="M122.81,533.84c-5.5,2.8-12.1,8.5-14,12.3-2.3,4.4-1.3,9.8,3.2,16.2,2,3,4,5.5,4.3,5.5s6.5-4.3,13.6-9.6,13.8-10.2,14.9-10.9c1.7-1.3,1.7-1.5-1.3-5.8C136.81,531.84,131.21,529.74,122.81,533.84Z" transform="translate(0 0)"/><path class="cls-2" d="M539.51,596.84c-6.9,5.1-8.3,7.1-8.3,12.5,0,5.7,4.2,13.4,10.1,18.6,3.8,3.4,5,3.9,9.1,3.9,3.8,0,5.8-.7,10.9-4.1,3.9-2.7,5.8-4.6,5.3-5.3s-5.5-7.5-11.1-15.4-10.4-14.2-10.5-14.2S542.41,594.64,539.51,596.84Z" transform="translate(0 0)"/><path class="cls-2" d="M478.41,644a57.69,57.69,0,0,0-6.3,2.7c-.6.7,1,5.7,5.3,16.6,1.2,2.9,1.3,2.8,4-6.5,3.8-13.2,4.1-15,3.3-14.9A38.26,38.26,0,0,0,478.41,644Z" transform="translate(0 0)"/><path class="cls-2" d="M277.41,643c-6.9,4.7-11.3,19.9-8,27.8,2.6,6.3,10.8,9.9,17.9,8,9.8-2.6,16.4-20.2,11.5-30.6C295.41,641,284.41,638.34,277.41,643Z" transform="translate(0 0)"/><path class="cls-2" d="M338.41,677.84a7.82,7.82,0,0,0-.7,9.4c1.6,2.1,7.4,3.5,15,3.6h5.7v-4.4a53,53,0,0,1,.6-7.5l.7-3.1H350C341.71,675.84,340.11,676.14,338.41,677.84Z" transform="translate(0 0)"/></svg>